<svg version="1.1" id="Layer_1" xmlns="http://www.w3.org/2000/svg" xmlns:xlink="http://www.w3.org/1999/xlink" x="0px" y="0px" viewBox="0 0 500 500" style="width: 188px;" xml:space="preserve" data-imageid="bitcoin-2-46" imageName="Bitcoin 2" class="illustrations_image">
<style type="text/css">
	.st0_bitcoin-2-46{fill:#FFBC0E;}
	.st1_bitcoin-2-46{fill:#093F68;}
	.st2_bitcoin-2-46{fill:#FFFFFF;}
	.st3_bitcoin-2-46{fill:#68E1FD;}
	.st4_bitcoin-2-46{fill:#DFEAEF;}
</style>
<g id="bitcoins_bitcoin-2-46">
	<path class="st0_bitcoin-2-46" d="M128.2,167.7c6.4-3.5,13.6-5.1,20.9-4.5c-1.6-11.7,11.4-12.4,19.4-12.1c0.8,0,11.5,1.7,11.6,1.1&#10;&#9;&#9;c1.4-8.6,4.8-17.2,11.4-22.9c7.5-6.5,15.7-5.5,24.7-4.3c9.4,1.2,19.9,2,28.8,5.1c10.6,3.9,18.5,12.9,21,23.9&#10;&#9;&#9;c5-4.8,11.8-7.3,18.8-7.1c10.4,0.4,19.1,8.4,26.2,15.4c7.8,7.6,12.9,17.6,14.4,28.4c11.8-7.3,27.6-6.5,39.6,0.3s20.6,19,24.9,32.2&#10;&#9;&#9;c2.1,6.4,3.3,13.2,2.1,19.9c-1.9,10.5-9.9,19.2-19.2,24.5s-20,7.6-30.5,9.6c-61.3,11.7-125.5,14.1-185.4-3.2&#10;&#9;&#9;c-19.1-5.5-41.3-15.9-48.3-36.1c-3.2-9.6-3.9-19.9-2.1-29.9c1.2-6.7,2.9-13.3,5-19.8c2-6.2,5.7-11.8,10.6-16.1&#10;&#9;&#9;C124.1,170.3,126.1,168.9,128.2,167.7z"/>
	<path class="st1_bitcoin-2-46" d="M250.6,288.2c-33.8,0-65.3-4.2-94.2-12.6c-27.1-7.9-43.8-20.4-49.6-37.3c-3.3-9.9-4.1-20.5-2.2-30.8&#10;&#9;&#9;c1.2-6.8,3-13.5,5.1-20.1c2.1-6.6,6-12.4,11.2-17c1.9-1.7,4.1-3.2,6.3-4.4l0,0c6-3.4,12.9-5,19.8-4.8c0-2.6,0.9-5.1,2.6-7.1&#10;&#9;&#9;c4.3-4.8,12.9-5.1,19-4.9c0.3,0,0.8,0.1,2.7,0.3c1.7,0.2,5.3,0.7,7.2,0.9c1.9-9.7,5.9-17.5,11.7-22.5c8.2-7.2,17.4-6,26.2-4.8&#10;&#9;&#9;c1.9,0.2,3.8,0.5,5.7,0.7c7.9,0.9,16.1,1.9,23.5,4.5c10.2,3.7,18.1,11.9,21.4,22.3c5.1-3.8,11.4-5.8,17.7-5.6&#10;&#9;&#9;c10.8,0.5,19.5,8.1,27.5,15.9c7.5,7.2,12.5,16.5,14.5,26.7c11.6-6,26.7-5.4,39.1,1.6c11.8,6.7,20.9,18.5,25.8,33.2&#10;&#9;&#9;c2.6,7.9,3.3,14.7,2.2,20.8c-1.9,10.2-9.2,19.6-20.1,25.8c-9.6,5.4-20.6,7.9-31.1,9.9C310.5,285.1,279.8,288.2,250.6,288.2z&#10;&#9;&#9; M129.2,169.4c-2,1.1-3.9,2.5-5.7,4c-4.6,4.1-8.1,9.3-10,15.2c-2.1,6.4-3.8,12.9-5,19.6c-1.8,9.7-1.1,19.6,2,28.9&#10;&#9;&#9;c5.4,15.6,21.2,27.4,47,34.9c53.1,15.4,115.2,16.5,184.5,3.2c10.1-1.9,20.8-4.3,29.9-9.4c9.9-5.6,16.6-14,18.2-23.1&#10;&#9;&#9;c1-5.5,0.3-11.7-2-18.9c-4.6-13.9-13.1-24.9-24-31.1c-12.2-6.9-27-7-37.7-0.3c-0.9,0.6-2.1,0.3-2.7-0.6c-0.1-0.2-0.2-0.5-0.3-0.8&#10;&#9;&#9;c-1.4-10.4-6.3-20-13.9-27.2c-7.5-7.3-15.5-14.4-25-14.8c-6.4-0.2-12.7,2.1-17.3,6.6c-0.8,0.7-2,0.7-2.7-0.1&#10;&#9;&#9;c-0.3-0.3-0.4-0.6-0.5-0.9c-2.3-10.4-9.7-18.8-19.7-22.5c-6.9-2.5-14.9-3.4-22.6-4.3c-1.9-0.2-3.9-0.5-5.8-0.7&#10;&#9;&#9;c-8.4-1.1-16.3-2.2-23.2,3.9s-9.6,15.1-10.7,21.8c-0.4,2.3-1.6,2.1-11.3,0.8c-1.1-0.2-2-0.3-2.3-0.3c-3-0.1-12.3-0.4-15.9,3.7&#10;&#9;&#9;c-1.4,1.5-1.9,3.6-1.5,6.3c0.1,1.1-0.6,2-1.7,2.2c-0.1,0-0.3,0-0.4,0C142.1,164.6,135.2,166,129.2,169.4L129.2,169.4z"/>
	<circle class="st0_bitcoin-2-46" cx="134.3" cy="223.1" r="49.3"/>
	<path class="st1_bitcoin-2-46" d="M134.3,274.4c-28.3,0-51.3-23-51.3-51.3c0-28.3,23-51.3,51.3-51.3c24.2,0,45.1,16.9,50.1,40.5l0,0&#10;&#9;&#9;c5.9,27.7-11.7,54.9-39.4,60.9C141.5,274,137.9,274.3,134.3,274.4z M134.3,175.7c-26.2,0-47.4,21.2-47.4,47.4&#10;&#9;&#9;c0,26.2,21.2,47.4,47.4,47.4s47.4-21.2,47.4-47.4c0-3.3-0.3-6.7-1-9.9l0,0C175.9,191.4,156.6,175.8,134.3,175.7L134.3,175.7z"/>
	<path class="st2_bitcoin-2-46" d="M133.4,189l1.6,7.5c0,0,6.8-1.2,10.1-0.4c6.3,1.5,10.5,4.7,10,12.4c-0.3,5.1-4.1,8.6-4,8.6s9.9-0.4,11.7,12.5&#10;&#9;&#9;c2.2,15.9-17,17.9-17,17.9l1.6,7.3c0.3,1.6-0.7,3.2-2.3,3.5l-0.9,0.2c-1.6,0.3-3.2-0.7-3.5-2.2c0,0,0,0,0,0l-1.6-7.7l-5.4,1.1&#10;&#9;&#9;l1.6,7.7c0.3,1.6-0.7,3.1-2.3,3.5l-0.9,0.2c-1.6,0.3-3.1-0.7-3.5-2.3l-1.7-8l-13.4,2.9l-0.4-8.4c1.5-0.3,2.8-0.6,4.2-0.9&#10;&#9;&#9;c2.3-0.4,3-1.7,2.5-3.9c-1.7-7.9-3.3-15.8-4.9-23.7l-0.2-1c-1.4-6.6-1.9-6.9-8.4-5.5l-1.6,0.3l-1.5-7l13.3-2.8l-1.7-7.9&#10;&#9;&#9;c-0.3-1.6,0.7-3.1,2.3-3.5l0.9-0.2c1.6-0.3,3.2,0.7,3.5,2.3l1.6,7.4l5.1-1.1l-1.6-7.4c-0.3-1.6,0.8-3.2,2.4-3.5l0.9-0.2&#10;&#9;&#9;C131.5,186.4,133,187.4,133.4,189z M129.5,228l2.8,13.2c4.6-0.8,9.1-1.7,13.1-4c3-1.8,4.3-4.2,3.8-6.9c-0.5-3.1-3.3-5.3-6.4-5.1&#10;&#9;&#9;C138.4,225.1,129.5,227.9,129.5,228L129.5,228z M127.9,220c4-0.6,7.9-1.5,11.3-3.7c2.1-1.2,3.1-3.6,2.6-5.9&#10;&#9;&#9;c-0.4-2.5-2.5-4.5-5.1-4.7c-4-0.6-7.8,0.3-11.7,1.3L127.9,220z"/>
	<path class="st1_bitcoin-2-46" d="M131.6,262.9c-2.3,0-4.3-1.6-4.8-3.9l-1.3-6.1l-11.5,2.5c-0.6,0.1-1.1,0-1.6-0.4c-0.5-0.3-0.7-0.9-0.8-1.4&#10;&#9;&#9;l-0.4-8.4c-0.1-1,0.6-1.8,1.5-2l1.3-0.3c1-0.2,1.9-0.4,2.9-0.6c0.6-0.1,0.9-0.3,0.9-0.4s0.2-0.3,0-1.2c-1.2-5.8-2.4-11.5-3.6-17.3&#10;&#9;&#9;l-1.5-7.4c-0.3-1.4-0.9-4.2-1.4-4.5s-3.2,0.2-4.6,0.5l-1.6,0.3c-1,0.2-2.1-0.4-2.3-1.5l-1.5-7c-0.2-1,0.4-2.1,1.5-2.3l11.4-2.4&#10;&#9;&#9;l-1.3-6c-0.6-2.6,1.1-5.2,3.8-5.8l0.9-0.2c2.6-0.6,5.2,1.1,5.8,3.8l1.2,5.6l1.3-0.3l-1.2-5.5c-0.6-2.6,1.1-5.2,3.8-5.8l0.9-0.2&#10;&#9;&#9;c2.6-0.6,5.2,1.1,5.8,3.8c0,0,0,0,0,0l1.2,5.7c2.4-0.3,6.5-0.7,9-0.1c5.2,1.3,12.1,4.1,11.5,14.4c-0.2,2.5-1,5-2.4,7.1&#10;&#9;&#9;c3.6,1.1,8.8,4.3,10.1,13.6c0.8,4.3-0.3,8.7-3,12.2c-3.9,4.9-10.3,6.9-13.6,7.5l1.1,5.3c0.6,2.6-1.1,5.2-3.8,5.8c0,0,0,0,0,0&#10;&#9;&#9;l-0.9,0.2c-2.6,0.6-5.3-1.1-5.8-3.8l-1.2-5.8L136,251l1.2,5.8c0.6,2.6-1.1,5.2-3.8,5.8l-0.9,0.2&#10;&#9;&#9;C132.3,262.9,131.9,262.9,131.6,262.9z M127,248.7c0.4,0,0.7,0.1,1.1,0.3c0.4,0.3,0.7,0.7,0.8,1.2l1.7,8c0.1,0.5,0.6,0.9,1.2,0.8&#10;&#9;&#9;c0,0,0,0,0,0l0.9-0.2c0.3-0.1,0.5-0.2,0.6-0.4c0.1-0.2,0.2-0.5,0.1-0.8l-1.6-7.7c-0.1-0.5,0-1,0.3-1.5c0.3-0.4,0.7-0.7,1.2-0.8&#10;&#9;&#9;l5.3-1.1c1-0.2,2.1,0.4,2.3,1.4c0,0,0,0,0,0l1.6,7.7c0.1,0.5,0.6,0.9,1.2,0.8c0,0,0,0,0,0l0.9-0.2c0.5-0.1,0.9-0.6,0.8-1.2&#10;&#9;&#9;c0,0,0,0,0,0l-1.6-7.3c-0.1-0.5,0-1.1,0.3-1.6c0.3-0.4,0.8-0.7,1.4-0.8c0.1,0,8.8-1,13.1-6.4c2-2.6,2.8-6,2.2-9.3&#10;&#9;&#9;c-1.5-10.9-9.4-10.8-9.7-10.8c-0.8,0-1.6-0.5-1.9-1.2c-0.3-0.8-0.1-1.6,0.5-2.2c1.9-1.9,3.1-4.5,3.4-7.2c0.3-5.9-2.1-8.8-8.6-10.4&#10;&#9;&#9;c-2.4-0.6-7.5,0.1-9.3,0.4c-1,0.1-2-0.5-2.2-1.5l-1.6-7.5l0,0c-0.1-0.5-0.6-0.9-1.2-0.8c0,0,0,0,0,0l-0.9,0.2&#10;&#9;&#9;c-0.5,0.1-0.9,0.6-0.8,1.2c0,0,0,0,0,0l1.6,7.4c0.1,0.5,0,1-0.3,1.5c-0.3,0.4-0.7,0.7-1.2,0.8l-5.1,1.1c-1,0.2-2.1-0.4-2.3-1.5&#10;&#9;&#9;l-1.6-7.5c-0.1-0.3-0.2-0.5-0.4-0.6c-0.2-0.1-0.5-0.2-0.8-0.1l-0.9,0.2c-0.5,0.1-0.9,0.6-0.8,1.2c0,0,0,0,0,0l1.7,7.9&#10;&#9;&#9;c0.2,1-0.5,2.1-1.5,2.3l-11.4,2.4l0.7,3.2c3.3-0.7,5.5-1,7.2,0.1s2.4,3.4,3.1,7l1.5,7.4c1.2,5.8,2.4,11.5,3.6,17.2&#10;&#9;&#9;c0.4,1.4,0.2,2.9-0.6,4.2c-0.8,1.1-2.1,1.9-3.5,2c-0.8,0.1-1.6,0.3-2.5,0.5l0.2,4.5l11.2-2.4C126.8,248.7,126.9,248.7,127,248.7z&#10;&#9;&#9; M132.3,243.1c-0.9,0-1.7-0.6-1.9-1.5l-2.8-13.2c-0.2-1,0.4-1.9,1.3-2.2c0.4-0.1,9.2-2.9,13.9-2.9c4.1-0.3,7.7,2.6,8.3,6.6&#10;&#9;&#9;c0.7,3.6-0.9,6.7-4.7,8.9c-4.4,2.6-9.2,3.5-13.8,4.3C132.6,243.1,132.4,243.1,132.3,243.1z M131.8,229.3l2,9.6&#10;&#9;&#9;c3.7-0.5,7.3-1.7,10.7-3.5c3.4-2,3-4.1,2.8-4.8c-0.3-2.2-2.3-3.7-4.5-3.5l0,0C140.1,227.1,134.9,228.4,131.8,229.3z M127.9,221.9&#10;&#9;&#9;c-0.9,0-1.7-0.6-1.9-1.5l-2.8-13c-0.2-1,0.4-2,1.4-2.3c3.7-1,7.9-2.1,12.5-1.4c3.4,0.4,6.1,2.9,6.7,6.3c0.6,3.1-0.8,6.3-3.5,7.9&#10;&#9;&#9;c-3.7,2.2-7.8,3.6-12.1,4L127.9,221.9z M127.4,208.3l2,9.4c3.1-0.4,6.1-1.5,8.8-3.2c1.4-0.8,2.2-2.4,1.8-4c-0.3-1.7-1.7-3-3.5-3.1&#10;&#9;&#9;C133.4,207.1,130.3,207.4,127.4,208.3z"/>
	<circle class="st0_bitcoin-2-46" cx="335.1" cy="185.1" r="49.3"/>
	<path class="st1_bitcoin-2-46" d="M335,236.4c-28.4,0-51.5-23-51.5-51.5c0-28.4,23-51.5,51.5-51.5c28.4,0,51.5,23,51.5,51.5&#10;&#9;&#9;c0,24.3-16.9,45.2-40.6,50.4C342.3,236,338.6,236.4,335,236.4z M335.1,137.7c-26.2,0-47.4,21.2-47.4,47.4&#10;&#9;&#9;c0,26.2,21.2,47.4,47.4,47.4c26.2,0,47.4-21.2,47.4-47.4c0-3.3-0.4-6.7-1-9.9l0,0C376.7,153.4,357.4,137.8,335.1,137.7L335.1,137.7&#10;&#9;&#9;z"/>
	<path class="st2_bitcoin-2-46" d="M334.1,151l1.6,7.5c0,0,6.8-1.2,10.1-0.4c6.3,1.5,10.5,4.7,10,12.4c-0.3,5.1-4.1,8.6-4,8.6s9.9-0.4,11.7,12.5&#10;&#9;&#9;c2.2,15.9-17,17.9-17,17.9l1.6,7.3c0.3,1.6-0.7,3.1-2.3,3.5l-0.9,0.2c-1.6,0.3-3.1-0.7-3.5-2.3l-1.6-7.7l-5.4,1.1l1.6,7.7&#10;&#9;&#9;c0.3,1.6-0.7,3.2-2.2,3.5c0,0,0,0,0,0L333,223c-1.6,0.3-3.2-0.7-3.5-2.3l-1.7-8l-13.4,2.9l-0.4-8.4c1.5-0.3,2.8-0.6,4.2-0.9&#10;&#9;&#9;c2.3-0.4,3-1.7,2.5-3.9c-1.7-7.9-3.3-15.8-4.9-23.7c-0.1-0.3-0.1-0.6-0.2-1c-1.4-6.6-1.9-6.9-8.4-5.5l-1.6,0.3l-1.5-7l13.3-2.8&#10;&#9;&#9;l-1.7-7.9c-0.3-1.6,0.7-3.1,2.3-3.5l0.9-0.2c1.6-0.3,3.2,0.7,3.5,2.3l1.6,7.4l5.1-1.1l-1.6-7.4c-0.3-1.6,0.7-3.2,2.3-3.5l0.9-0.2&#10;&#9;&#9;C332.2,148.4,333.8,149.4,334.1,151z M330.3,190l2.8,13.2c4.6-0.8,9.1-1.7,13.1-4c3-1.8,4.3-4.2,3.8-6.9c-0.5-3.1-3.3-5.3-6.4-5.1&#10;&#9;&#9;C339.1,187.2,330.3,190,330.3,190z M328.6,182c4-0.6,7.9-1.5,11.3-3.7c2.1-1.2,3.1-3.6,2.6-5.9c-0.4-2.5-2.5-4.5-5.1-4.7&#10;&#9;&#9;c-4-0.6-7.8,0.3-11.7,1.3L328.6,182z"/>
	<path class="st1_bitcoin-2-46" d="M332.4,225c-2.3,0-4.3-1.6-4.8-3.9l-1.3-6.1l-11.5,2.5c-0.6,0.1-1.1,0-1.6-0.4c-0.5-0.3-0.7-0.9-0.8-1.4&#10;&#9;&#9;l-0.4-8.4c-0.1-1,0.6-1.8,1.5-2l1.3-0.3c1-0.2,2-0.4,2.9-0.6c0.3,0,0.7-0.1,0.9-0.4c0,0,0.2-0.3,0-1.2c-1.2-5.7-2.4-11.3-3.6-17&#10;&#9;&#9;l-1.6-7.6c-0.3-1.4-0.9-4.2-1.4-4.5s-3.2,0.2-4.6,0.5l-1.6,0.3c-1,0.2-2.1-0.4-2.3-1.5c0,0,0,0,0,0l-1.5-7c-0.2-1,0.4-2.1,1.5-2.3&#10;&#9;&#9;l11.3-2.4l-1.3-6c-0.6-2.6,1.1-5.2,3.8-5.8l0.9-0.2c2.6-0.6,5.2,1.1,5.8,3.7c0,0,0,0,0,0l1.2,5.6l1.3-0.3l-1.2-5.5&#10;&#9;&#9;c-0.6-2.6,1.1-5.2,3.8-5.8c0,0,0,0,0,0l0.9-0.2c2.6-0.6,5.2,1.1,5.8,3.8l0,0l1.2,5.7c2.4-0.3,6.5-0.7,9-0.1&#10;&#9;&#9;c5.2,1.3,12.1,4.1,11.5,14.4c-0.2,2.5-1,5-2.4,7.1c3.6,1.1,8.8,4.3,10.1,13.6c0.8,4.3-0.3,8.7-3,12.2c-3.9,4.9-10.3,6.9-13.6,7.5&#10;&#9;&#9;l1.1,5.3c0.6,2.6-1.1,5.2-3.8,5.8l-0.9,0.2c-2.6,0.6-5.3-1.1-5.8-3.8l-1.2-5.8l-1.5,0.3l1.2,5.8c0.6,2.6-1.1,5.2-3.8,5.8l-0.9,0.2&#10;&#9;&#9;C333,224.9,332.7,225,332.4,225z M327.8,210.8c0.9,0,1.7,0.6,1.9,1.5l1.7,8c0.1,0.3,0.2,0.5,0.4,0.6c0.2,0.1,0.5,0.2,0.8,0.1&#10;&#9;&#9;l0.9-0.2c0.5-0.1,0.9-0.6,0.8-1.2c0,0,0,0,0,0l-1.6-7.7c-0.1-0.5,0-1,0.3-1.5c0.3-0.4,0.7-0.7,1.2-0.8l5.4-1.1&#10;&#9;&#9;c1-0.2,2.1,0.4,2.3,1.5l1.6,7.7c0.1,0.3,0.2,0.5,0.4,0.6c0.2,0.2,0.5,0.2,0.8,0.1l0.9-0.2c0.3-0.1,0.5-0.2,0.6-0.4&#10;&#9;&#9;c0.1-0.2,0.2-0.5,0.1-0.8l-1.6-7.3c-0.2-1.1,0.5-2.1,1.5-2.3c0.1,0,0.1,0,0.2,0c0.1,0,8.8-1,13.1-6.4c2-2.6,2.8-6,2.2-9.3&#10;&#9;&#9;c-1.5-10.9-9.4-10.8-9.7-10.8h-0.1c-0.8,0-1.5-0.5-1.8-1.2c-0.3-0.8-0.1-1.6,0.5-2.2c1.9-1.9,3.1-4.5,3.4-7.2&#10;&#9;&#9;c0.4-5.9-2.1-8.8-8.6-10.4c-2.4-0.6-7.5,0.1-9.3,0.4c-1,0.2-2-0.5-2.2-1.5l-1.6-7.5c-0.1-0.5-0.6-0.9-1.2-0.8c0,0,0,0,0,0l-0.9,0.2&#10;&#9;&#9;c-0.5,0.1-0.9,0.6-0.8,1.2c0,0,0,0,0,0l1.6,7.4c0.1,0.5,0,1-0.3,1.5c-0.3,0.4-0.7,0.7-1.2,0.8l-5.1,1.1c-1,0.2-2.1-0.5-2.3-1.5&#10;&#9;&#9;l-1.6-7.5c-0.1-0.5-0.6-0.9-1.2-0.8c0,0,0,0,0,0l-0.9,0.2c-0.5,0.1-0.9,0.6-0.8,1.2c0,0,0,0,0,0l1.7,7.9c0.2,1-0.4,2.1-1.5,2.3&#10;&#9;&#9;l-11.4,2.4l0.7,3.2c3.3-0.7,5.5-1,7.2,0.1s2.4,3.4,3.1,7l1.6,7.6c1.2,5.7,2.3,11.3,3.5,17c0.4,1.4,0.2,2.9-0.5,4.2&#10;&#9;&#9;c-0.8,1.1-2.1,1.9-3.5,2c-0.8,0.1-1.6,0.3-2.5,0.5l0.2,4.5l11.1-2.4C327.5,210.8,327.6,210.8,327.8,210.8L327.8,210.8z&#10;&#9;&#9; M333.1,205.1c-0.9,0-1.7-0.6-1.9-1.5l-2.8-13.2c-0.2-1,0.4-1.9,1.3-2.2c0.4-0.1,9.2-2.9,13.9-2.9c4.1-0.2,7.6,2.6,8.3,6.6&#10;&#9;&#9;c0.7,3.6-0.9,6.7-4.7,8.9c-4.4,2.6-9.2,3.5-13.8,4.3L333.1,205.1z M332.6,191.3l2,9.6c3.7-0.5,7.3-1.7,10.7-3.5&#10;&#9;&#9;c3.4-2,3-4.1,2.8-4.8c-0.3-2.2-2.3-3.7-4.5-3.5l0,0C340.6,189.1,335.3,190.5,332.6,191.3L332.6,191.3z M328.6,183.9&#10;&#9;&#9;c-0.9,0-1.7-0.7-1.9-1.5l-2.8-13c-0.2-1,0.4-2,1.4-2.3c3.7-1,7.9-2.1,12.5-1.4c3.4,0.4,6.1,2.9,6.7,6.3c0.6,3.1-0.7,6.3-3.5,7.9&#10;&#9;&#9;c-3.7,2.2-7.8,3.6-12.1,4L328.6,183.9z M328.1,170.4l2,9.4c3.1-0.5,6.1-1.5,8.8-3.2c1.4-0.8,2.2-2.4,1.8-4c-0.3-1.7-1.7-3-3.5-3.1&#10;&#9;&#9;C334.1,169.2,331.1,169.5,328.1,170.4L328.1,170.4z"/>
	<circle class="st0_bitcoin-2-46" cx="205.4" cy="144.4" r="49.3"/>
	<path class="st1_bitcoin-2-46" d="M205.3,195.6c-28.4,0-51.5-23-51.5-51.5c0-28.4,23-51.5,51.5-51.5s51.5,23,51.5,51.5&#10;&#9;&#9;c0,24.3-16.9,45.2-40.6,50.4C212.6,195.2,209,195.6,205.3,195.6z M205.4,97c-26.2,0-47.4,21.2-47.4,47.4c0,3.3,0.4,6.7,1,9.9&#10;&#9;&#9;c5.5,25.6,30.7,41.9,56.2,36.4s41.9-30.7,36.4-56.2l0,0C247.1,112.6,227.8,97,205.4,97z"/>
	<path class="st2_bitcoin-2-46" d="M204.5,110.2l1.6,7.5c0,0,6.8-1.2,10.1-0.4c6.3,1.5,10.5,4.7,10,12.3c-0.3,5.1-4.1,8.6-4,8.6&#10;&#9;&#9;s9.9-0.4,11.7,12.5c2.2,15.9-17,17.9-17,17.9l1.6,7.3c0.3,1.6-0.7,3.2-2.3,3.5l-0.9,0.2c-1.6,0.3-3.1-0.7-3.5-2.3l-1.6-7.7&#10;&#9;&#9;l-5.4,1.1l1.6,7.7c0.3,1.6-0.7,3.1-2.3,3.5l-0.9,0.2c-1.6,0.3-3.2-0.7-3.5-2.3l-1.7-8l-13.4,2.9l-0.4-8.4c1.5-0.3,2.8-0.6,4.2-0.9&#10;&#9;&#9;c2.3-0.4,2.9-1.7,2.5-3.9c-1.7-7.9-3.3-15.8-4.9-23.7c-0.1-0.3-0.1-0.6-0.2-1c-1.4-6.6-1.9-6.9-8.4-5.5l-1.6,0.3l-1.5-7l13.3-2.8&#10;&#9;&#9;l-1.7-7.9c-0.3-1.6,0.7-3.2,2.2-3.5c0,0,0,0,0,0l0.9-0.2c1.6-0.3,3.1,0.7,3.5,2.3l1.6,7.5l5.1-1.1l-1.6-7.3&#10;&#9;&#9;c-0.3-1.6,0.7-3.2,2.3-3.5l0.9-0.2C202.6,107.7,204.1,108.7,204.5,110.2z M200.6,149.2l2.8,13.2c4.6-0.8,9.1-1.7,13.1-4&#10;&#9;&#9;c3-1.8,4.3-4.2,3.8-6.9c-0.5-3.1-3.3-5.3-6.4-5.1C209.5,146.4,200.6,149.2,200.6,149.2L200.6,149.2z M199,141.2&#10;&#9;&#9;c4-0.6,7.9-1.5,11.3-3.7c2.1-1.2,3.1-3.6,2.6-5.9c-0.4-2.5-2.5-4.5-5.1-4.7c-4-0.6-7.8,0.3-11.7,1.3L199,141.2z"/>
	<path class="st1_bitcoin-2-46" d="M202.7,184.2c-2.3,0-4.3-1.6-4.8-3.9l-1.3-6.1l-11.5,2.5c-1,0.2-2.1-0.4-2.3-1.5c0-0.1,0-0.2,0-0.3l-0.4-8.4&#10;&#9;&#9;c-0.1-1,0.6-1.8,1.5-2l1.3-0.3c1-0.2,1.9-0.4,2.9-0.6c0.4,0,0.7-0.1,1-0.4c0,0,0.2-0.3,0-1.2c-1.2-5.7-2.4-11.4-3.6-17.1l-1.6-7.5&#10;&#9;&#9;c-0.3-1.5-0.9-4.2-1.4-4.5s-3.2,0.2-4.6,0.5l-1.6,0.3c-1,0.2-2.1-0.4-2.3-1.5c0,0,0,0,0,0l-1.5-7c-0.2-1,0.4-2.1,1.5-2.3&#10;&#9;&#9;c0,0,0,0,0,0l11.4-2.4l-1.3-6c-0.6-2.6,1.1-5.2,3.8-5.8l0.9-0.2c2.6-0.6,5.2,1.1,5.8,3.7c0,0,0,0,0,0l1.2,5.6l1.3-0.3l-1.2-5.5&#10;&#9;&#9;c-0.6-2.6,1.1-5.2,3.8-5.8c0,0,0,0,0,0l0.9-0.2c2.6-0.6,5.2,1.1,5.8,3.8l1.2,5.7c2.4-0.3,6.5-0.7,9-0.1c5.2,1.3,12.1,4.1,11.5,14.3&#10;&#9;&#9;c-0.2,2.5-1,5-2.4,7.1c3.6,1.1,8.8,4.3,10.1,13.6c0.8,4.3-0.3,8.7-3,12.2c-3.9,4.9-10.3,6.9-13.6,7.5l1.1,5.3&#10;&#9;&#9;c0.6,2.6-1.1,5.2-3.8,5.8l-0.9,0.2c-2.6,0.6-5.2-1.1-5.8-3.8l-1.2-5.8l-1.6,0.3l1.2,5.8c0.6,2.6-1.1,5.2-3.8,5.8l-0.9,0.2&#10;&#9;&#9;C203.4,184.2,203.1,184.2,202.7,184.2z M198.1,170c0.9,0,1.7,0.6,1.9,1.5l1.7,8c0.1,0.5,0.6,0.9,1.2,0.8c0,0,0,0,0,0l0.9-0.2&#10;&#9;&#9;c0.5-0.1,0.9-0.6,0.8-1.2c0,0,0,0,0,0l-1.6-7.7c-0.2-1,0.4-2.1,1.5-2.3c0,0,0,0,0,0l5.3-1.1c1-0.2,2.1,0.4,2.3,1.5c0,0,0,0,0,0&#10;&#9;&#9;l1.6,7.7c0.1,0.5,0.6,0.9,1.2,0.8c0,0,0,0,0.1,0l0.9-0.2c0.5-0.1,0.9-0.6,0.8-1.2c0,0,0,0,0,0l-1.6-7.3c-0.1-0.5,0-1.1,0.3-1.5&#10;&#9;&#9;c0.3-0.4,0.8-0.7,1.4-0.8c0.1,0,8.8-1,13.1-6.4c2-2.6,2.8-6,2.2-9.3c-1.5-10.9-9.4-10.8-9.7-10.8h-0.1c-1.1-0.1-1.9-1-1.9-2.1&#10;&#9;&#9;c0-0.5,0.2-0.9,0.6-1.3c1.9-1.9,3.1-4.5,3.4-7.2c0.3-5.9-2.1-8.8-8.6-10.4c-2.4-0.6-7.5,0.1-9.3,0.4c-1,0.1-2-0.5-2.2-1.5l-1.6-7.5&#10;&#9;&#9;l0,0c-0.1-0.3-0.2-0.5-0.4-0.7c-0.2-0.1-0.5-0.2-0.8-0.1l-0.9,0.2c-0.5,0.1-0.9,0.6-0.8,1.2c0,0,0,0,0,0l1.6,7.3&#10;&#9;&#9;c0.1,0.5,0,1-0.3,1.5c-0.3,0.4-0.7,0.7-1.2,0.8l-5.1,1.1c-1,0.2-2.1-0.4-2.3-1.5c0,0,0,0,0,0l-1.6-7.4c-0.1-0.3-0.2-0.5-0.4-0.6&#10;&#9;&#9;c-0.2-0.1-0.5-0.2-0.8-0.1l-0.9,0.2c-0.5,0.1-0.9,0.6-0.8,1.2c0,0,0,0,0,0l1.7,7.9c0.2,1-0.4,2.1-1.5,2.3c0,0,0,0,0,0l-11.4,2.4&#10;&#9;&#9;l0.7,3.2c3.3-0.7,5.5-1,7.2,0.1s2.4,3.4,3.1,7l1.6,7.6c1.2,5.7,2.4,11.4,3.6,17.1c0.4,1.4,0.2,2.9-0.6,4.2c-0.8,1.1-2.1,1.9-3.5,2&#10;&#9;&#9;c-0.8,0.1-1.6,0.3-2.5,0.5l0.2,4.5l11.1-2.4C197.9,170,198,170,198.1,170z M203.5,164.3c-0.9,0-1.7-0.6-1.9-1.5l-2.8-13.2&#10;&#9;&#9;c-0.2-1,0.4-2,1.3-2.2c0.4-0.1,9.2-2.9,13.9-2.9c4.1-0.3,7.7,2.6,8.3,6.6c0.7,3.6-1,6.7-4.7,8.9c-4.4,2.6-9.2,3.6-13.8,4.3&#10;&#9;&#9;C203.7,164.3,203.6,164.3,203.5,164.3z M202.9,150.6l2.1,9.6c3.7-0.5,7.3-1.7,10.6-3.5c3.4-2,3-4.1,2.8-4.8&#10;&#9;&#9;c-0.3-2.2-2.3-3.7-4.5-3.5l0,0C211.2,148.3,206,149.7,202.9,150.6z M199,143.2c-0.9,0-1.7-0.6-1.9-1.5l-2.8-13&#10;&#9;&#9;c-0.2-1,0.4-2,1.4-2.3c3.7-1,7.9-2.1,12.5-1.4c3.4,0.4,6.1,2.9,6.7,6.3c0.6,3.1-0.8,6.3-3.5,7.9c-3.7,2.2-7.8,3.6-12.1,4L199,143.2&#10;&#9;&#9;z M198.5,129.6l2,9.4c3.1-0.4,6.1-1.5,8.7-3.2c1.4-0.8,2.2-2.4,1.8-4c-0.3-1.7-1.7-3-3.5-3.1C204.5,128.4,201.4,128.7,198.5,129.6&#10;&#9;&#9;L198.5,129.6z"/>
	<path class="st0_bitcoin-2-46" d="M207.7,204.6c0.5-3.6,1.7-7.1,3.5-10.3c2.2-4.3,5.2-8.4,9.2-11.1s9.4-3.7,13.9-1.8c-0.3-3.8,1.8-7.4,4.6-10&#10;&#9;&#9;c8.5-8,21.9-7.6,30,0.9c0.4,0.5,0.8,0.9,1.2,1.4"/>
	<path class="st1_bitcoin-2-46" d="M207.7,206.5h-0.2c-1.1-0.1-1.8-1.1-1.7-2.1c0,0,0,0,0,0c0.5-3.9,1.8-7.6,3.7-10.9c2.9-5.5,6.1-9.3,9.9-11.8&#10;&#9;&#9;c3.8-2.6,8.6-3.6,13.1-2.8c0.7-3.4,2.5-6.5,5.1-8.8c9.3-8.7,23.9-8.3,32.7,1c0.5,0.5,0.9,1,1.3,1.5c0.6,0.9,0.5,2-0.3,2.7&#10;&#9;&#9;c-0.8,0.7-2.1,0.5-2.7-0.3c0,0,0,0,0,0c-6.6-8.3-18.7-9.8-27-3.2c-0.4,0.3-0.9,0.7-1.3,1.1c-2.8,2.6-4.2,5.7-4,8.5&#10;&#9;&#9;c0.1,0.7-0.3,1.3-0.8,1.7c-0.6,0.4-1.3,0.5-1.9,0.2c-3.6-1.6-8.2-1-12,1.6c-3.2,2.1-6,5.5-8.6,10.4c-1.7,3-2.8,6.2-3.2,9.6&#10;&#9;&#9;C209.5,205.8,208.7,206.5,207.7,206.5z"/>
</g>
<g id="cart_bitcoin-2-46">
	<path class="st1_bitcoin-2-46" d="M302.7,423.1c-9.8,0-19.4-0.9-27.3-4.4l-2.2-0.9c-5.3-2.4-10.9-4.8-16.4-4.3c-2.2,0.3-4.3,0.8-6.4,1.5&#10;&#9;&#9;c-2.6,0.9-5.3,1.4-8,1.7c-2.6,0-5.2-0.2-7.7-0.8c-1.1-0.2-2.3-0.4-3.4-0.6c-7.3-0.9-13.6,1-20.4,3.1c-2.4,0.8-4.9,1.5-7.6,2.2&#10;&#9;&#9;c-6.7,1.7-13.9,1.5-20.8,1.3c-2.1,0-4.2-0.1-6.3-0.1H72.3c-1.1,0.1-2-0.7-2.1-1.8s0.7-2,1.8-2.1c0.1,0,0.2,0,0.3,0h103.9&#10;&#9;&#9;c2.1,0,4.2,0,6.4,0.1c6.7,0.2,13.6,0.3,19.8-1.2c2.5-0.6,5-1.4,7.4-2.1c6.8-2.1,13.9-4.3,22-3.3c1.2,0.2,2.4,0.4,3.7,0.6&#10;&#9;&#9;c2.2,0.5,4.5,0.8,6.8,0.7c2.4-0.2,4.8-0.7,7.1-1.5c2.3-0.8,4.7-1.3,7.2-1.6c6.5-0.6,12.5,2,18.3,4.6l2.1,0.9&#10;&#9;&#9;c12,5.2,28.7,4.2,43.4,3.4c5.5-0.3,10.7-0.6,15.5-0.6h91.9c1.1-0.1,2,0.7,2.1,1.8c0.1,1.1-0.7,2-1.8,2.1c-0.1,0-0.2,0-0.3,0h-92&#10;&#9;&#9;c-4.7,0-9.9,0.3-15.3,0.6C314.7,422.8,308.7,423.1,302.7,423.1z"/>
	<polygon class="st3_bitcoin-2-46 targetColor" points="376.8,380.5 118.3,380.5 82.2,226.2 413,226.2 &#9;" style="fill: rgb(187, 104, 253);"/>
	<path class="st1_bitcoin-2-46" d="M376.8,382.5H118.3c-0.9,0-1.7-0.6-1.9-1.5L80.3,226.7c-0.1-0.6,0-1.2,0.4-1.6c0.4-0.5,0.9-0.7,1.5-0.7H413&#10;&#9;&#9;c1.1,0,1.9,0.9,1.9,1.9c0,0.1,0,0.3-0.1,0.4L378.7,381C378.5,381.9,377.7,382.5,376.8,382.5z M119.9,378.6h255.4l35.3-150.4H84.6&#10;&#9;&#9;L119.9,378.6z"/>
	<path class="st1_bitcoin-2-46" d="M381.8,357.9H122.5c-1.1,0-1.9-0.9-1.9-1.9s0.9-1.9,1.9-1.9l0,0h259.3c1.1,0,1.9,0.9,1.9,1.9&#10;&#9;&#9;S382.9,357.9,381.8,357.9L381.8,357.9z"/>
	<path class="st3_bitcoin-2-46 targetColor" d="M86.2,210.4h322.6c7.7,0,13.9,6.2,13.9,13.9v0c0,7.7-6.2,13.9-13.9,13.9H86.2c-7.7,0-13.9-6.2-13.9-13.9v0&#10;&#9;&#9;C72.3,216.6,78.6,210.4,86.2,210.4z" style="fill: rgb(187, 104, 253);"/>
	<path class="st1_bitcoin-2-46" d="M408.9,240.2H86.2c-8.8,0-15.9-7.1-15.9-15.9c0-8.8,7.1-15.9,15.9-15.9h322.6c8.8,0,15.9,7.1,15.9,15.9&#10;&#9;&#9;C424.8,233.1,417.6,240.2,408.9,240.2L408.9,240.2z M86.2,212.3c-6.6,0-12,5.4-12,12s5.4,12,12,12h322.6c6.6,0,12-5.4,12-12&#10;&#9;&#9;s-5.4-12-12-12H86.2z"/>
	<circle class="st1_bitcoin-2-46" cx="122.1" cy="380.5" r="39.4"/>
	<path class="st1_bitcoin-2-46" d="M122.1,421.9c-22.8,0-41.3-18.5-41.4-41.4c0-22.8,18.5-41.3,41.3-41.4c22.8,0,41.4,18.5,41.4,41.4c0,0,0,0,0,0&#10;&#9;&#9;C163.4,403.3,144.9,421.8,122.1,421.9z M122.1,343c-20.7,0-37.5,16.8-37.5,37.5s16.8,37.5,37.5,37.5s37.5-16.8,37.5-37.5&#10;&#9;&#9;C159.5,359.8,142.7,343.1,122.1,343z"/>
	<circle class="st2_bitcoin-2-46" cx="122.5" cy="380.5" r="20.3"/>
	<path class="st1_bitcoin-2-46" d="M122.5,402.8c-12.3,0-22.3-10-22.3-22.3s10-22.3,22.3-22.3s22.3,10,22.3,22.3c0,0,0,0,0,0&#10;&#9;&#9;C144.8,392.8,134.8,402.8,122.5,402.8z M122.5,362.1c-10.2,0-18.4,8.2-18.4,18.4s8.2,18.4,18.4,18.4s18.4-8.2,18.4-18.4&#10;&#9;&#9;C140.9,370.4,132.7,362.1,122.5,362.1L122.5,362.1z"/>
	<circle class="st1_bitcoin-2-46" cx="373.1" cy="380.5" r="39.4"/>
	<path class="st1_bitcoin-2-46" d="M373.1,421.9c-22.8,0-41.4-18.5-41.3-41.4c0-22.8,18.5-41.4,41.4-41.4c22.8,0,41.3,18.5,41.3,41.4c0,0,0,0,0,0&#10;&#9;&#9;C414.4,403.3,395.9,421.8,373.1,421.9z M373.1,343c-20.7,0-37.5,16.8-37.5,37.5s16.8,37.5,37.5,37.5s37.5-16.8,37.5-37.5&#10;&#9;&#9;C410.5,359.8,393.8,343.1,373.1,343z"/>
	<circle class="st2_bitcoin-2-46" cx="373.5" cy="380.5" r="20.3"/>
	<path class="st1_bitcoin-2-46" d="M373.5,402.8c-12.3,0-22.3-10-22.3-22.2s10-22.3,22.2-22.3s22.3,10,22.3,22.2c0,0,0,0,0,0&#10;&#9;&#9;C395.8,392.8,385.8,402.8,373.5,402.8z M373.5,362.1c-10.2,0-18.4,8.2-18.4,18.4s8.2,18.4,18.4,18.4c10.2,0,18.4-8.2,18.4-18.4&#10;&#9;&#9;C391.9,370.4,383.7,362.1,373.5,362.1L373.5,362.1z"/>
	<path class="st1_bitcoin-2-46" d="M119.2,310.9c-0.9,0-1.7-0.6-1.9-1.5l-2.3-9.7c-0.3-1,0.3-2.1,1.3-2.4c1-0.3,2.1,0.3,2.4,1.3&#10;&#9;&#9;c0,0.1,0,0.1,0,0.2l2.3,9.7c0.2,1-0.4,2.1-1.4,2.3c0,0,0,0,0,0C119.5,310.9,119.4,310.9,119.2,310.9z"/>
	<path class="st1_bitcoin-2-46" d="M114.6,291.2c-0.9,0-1.7-0.6-1.9-1.5l-7.9-33c-0.2-1,0.4-2.1,1.4-2.3c1-0.2,2.1,0.4,2.3,1.4l7.9,33&#10;&#9;&#9;c0.2,1-0.4,2.1-1.4,2.3C114.9,291.2,114.7,291.2,114.6,291.2z"/>
</g>
<g id="lines_bitcoin-2-46">
	<path class="st4_bitcoin-2-46" d="M288.2,91.6c-1.1,0-1.9-0.9-1.9-1.9c0,0,0,0,0,0V78.8c0.1-1.1,1-1.9,2.1-1.8c1,0.1,1.7,0.8,1.8,1.8v10.9&#10;&#9;&#9;C290.1,90.8,289.2,91.6,288.2,91.6L288.2,91.6z"/>
	<path class="st4_bitcoin-2-46" d="M288.2,113.1c-1.1,0-1.9-0.9-1.9-1.9c0,0,0,0,0,0v-10.9c-0.1-1.1,0.7-2,1.8-2.1s2,0.7,2.1,1.8&#10;&#9;&#9;c0,0.1,0,0.2,0,0.3v10.9C290.1,112.2,289.2,113.1,288.2,113.1L288.2,113.1z"/>
	<path class="st4_bitcoin-2-46" d="M304.3,96.9h-10.9c-1.1,0.1-2-0.7-2.1-1.8c-0.1-1.1,0.7-2,1.8-2.1c0.1,0,0.2,0,0.3,0h10.9&#10;&#9;&#9;c1.1,0.1,1.9,1,1.8,2.1C306.1,96,305.3,96.8,304.3,96.9z"/>
	<path class="st4_bitcoin-2-46" d="M282.9,96.9H272c-1.1,0-1.9-0.9-1.9-1.9c0-1.1,0.9-1.9,1.9-1.9c0,0,0,0,0,0h10.9c1.1-0.1,2,0.7,2.1,1.8&#10;&#9;&#9;c0.1,1.1-0.7,2-1.8,2.1C283.1,96.9,283,96.9,282.9,96.9L282.9,96.9z"/>
	<path class="st4_bitcoin-2-46" d="M114.6,132.5c-1.1,0-1.9-0.9-1.9-1.9l0,0v-10.9c0-1.1,0.9-1.9,1.9-1.9c1.1,0,1.9,0.9,1.9,1.9v10.9&#10;&#9;&#9;C116.5,131.6,115.6,132.5,114.6,132.5z"/>
	<path class="st4_bitcoin-2-46" d="M114.6,153.9c-1.1,0-1.9-0.9-1.9-1.9l0,0v-10.9c0-1.1,0.9-1.9,1.9-1.9c1.1,0,1.9,0.9,1.9,1.9V152&#10;&#9;&#9;C116.5,153.1,115.6,153.9,114.6,153.9z"/>
	<path class="st4_bitcoin-2-46" d="M130.7,137.7h-10.9c-1.1,0-1.9-0.9-1.9-1.9s0.9-1.9,1.9-1.9h10.9c1.1,0,1.9,0.9,1.9,1.9&#10;&#9;&#9;S131.8,137.7,130.7,137.7z"/>
	<path class="st4_bitcoin-2-46" d="M109.3,137.7H98.4c-1.1,0-1.9-0.9-1.9-1.9s0.9-1.9,1.9-1.9h10.9c1.1,0,1.9,0.9,1.9,1.9&#10;&#9;&#9;S110.4,137.7,109.3,137.7L109.3,137.7z"/>
	<path class="st4_bitcoin-2-46" d="M384.4,132.2c-1.1,0-1.9-0.9-1.9-1.9l0,0v-7.2c0-1.1,0.9-1.9,1.9-1.9s1.9,0.9,1.9,1.9v7.2&#10;&#9;&#9;C386.3,131.3,385.5,132.2,384.4,132.2L384.4,132.2z"/>
	<path class="st4_bitcoin-2-46" d="M384.4,146.4c-1.1,0-1.9-0.9-1.9-1.9l0,0v-7.2c0-1.1,0.9-1.9,1.9-1.9s1.9,0.9,1.9,1.9v7.2&#10;&#9;&#9;C386.3,145.6,385.5,146.4,384.4,146.4L384.4,146.4z"/>
	<path class="st4_bitcoin-2-46" d="M395.1,135.7h-7.2c-1.1,0.1-2-0.7-2.1-1.8c-0.1-1.1,0.7-2,1.8-2.1c0.1,0,0.2,0,0.3,0h7.2&#10;&#9;&#9;c1.1-0.1,2,0.7,2.1,1.8c0.1,1.1-0.7,2-1.8,2.1C395.3,135.7,395.2,135.7,395.1,135.7z"/>
	<path class="st4_bitcoin-2-46" d="M380.9,135.7h-7.2c-1.1,0.1-2-0.7-2.1-1.8c-0.1-1.1,0.7-2,1.8-2.1c0.1,0,0.2,0,0.3,0h7.2&#10;&#9;&#9;c1.1-0.1,2,0.7,2.1,1.8c0.1,1.1-0.7,2-1.8,2.1C381.1,135.7,381,135.7,380.9,135.7z"/>
</g>
</svg>