<svg version="1.1" id="Layer_1" xmlns="http://www.w3.org/2000/svg" xmlns:xlink="http://www.w3.org/1999/xlink" x="0px" y="0px" viewBox="0 0 500 500" style="width: 188px;" xml:space="preserve" data-imageid="bitcoin-2-89" imageName="Bitcoin 2" class="illustrations_image">
<style type="text/css">
	.st0_bitcoin-2-89{fill:#FFFFFF;}
	.st1_bitcoin-2-89{fill:#231F20;}
	.st2_bitcoin-2-89{fill:#D1D3D4;}
	.st3_bitcoin-2-89{fill:#68E1FD;}
</style>
<g id="Coin_stack_1_bitcoin-2-89">
	<path class="st0_bitcoin-2-89" d="M437.9,350.7v24.6c0,9.3-21.9,16.8-49,16.8s-49-7.5-49-16.8v-24.6H437.9z"/>
	<path class="st1_bitcoin-2-89" d="M388.9,392.8c-27.9,0-49.7-7.7-49.7-17.5v-24.6c0-0.4,0.3-0.7,0.7-0.7h0h97.9c0.4,0,0.7,0.3,0.7,0.7v24.6&#10;&#9;&#9;C438.6,385.1,416.8,392.8,388.9,392.8z M340.7,351.4v23.9c0,8.8,22.1,16.1,48.3,16.1s48.3-7.4,48.3-16.1v-23.9L340.7,351.4z"/>
	<ellipse class="st1_bitcoin-2-89" cx="388.9" cy="350.7" rx="49" ry="16.8"/>
	<path class="st1_bitcoin-2-89" d="M388.9,368.3c-27.9,0-49.7-7.7-49.7-17.5s21.8-17.5,49.7-17.5s49.7,7.7,49.7,17.5S416.8,368.3,388.9,368.3z&#10;&#9;&#9; M388.9,334.6c-26.2,0-48.3,7.4-48.3,16.1s22.1,16.1,48.3,16.1s48.3-7.4,48.3-16.1S415.1,334.6,388.9,334.6z"/>
	<path class="st0_bitcoin-2-89" d="M444.3,321.6v24.6c0,9.3-21.9,16.8-49,16.8s-49-7.5-49-16.8v-24.6H444.3z"/>
	<path class="st1_bitcoin-2-89" d="M395.3,363.7c-27.8,0-49.7-7.7-49.7-17.5v-24.6c0-0.4,0.3-0.7,0.7-0.7h97.9c0.4,0,0.7,0.3,0.7,0.7v0v24.6&#10;&#9;&#9;C445,356,423.1,363.7,395.3,363.7z M347,322.3v23.9c0,8.8,22.1,16.1,48.3,16.1s48.3-7.4,48.3-16.1v-23.9H347z"/>
	<ellipse class="st1_bitcoin-2-89" cx="395.3" cy="321.6" rx="49" ry="16.8"/>
	<path class="st1_bitcoin-2-89" d="M395.3,339.1c-27.8,0-49.7-7.7-49.7-17.5s21.8-17.6,49.7-17.6s49.7,7.8,49.7,17.6S423.1,339.1,395.3,339.1z&#10;&#9;&#9; M395.3,305.4c-26.2,0-48.3,7.4-48.3,16.1s22.1,16.1,48.3,16.1s48.3-7.4,48.3-16.1S421.5,305.4,395.3,305.4z"/>
	<path class="st0_bitcoin-2-89" d="M436.4,286.1v24.6c0,9.3-21.9,16.8-49,16.8s-49-7.5-49-16.8v-24.6H436.4z"/>
	<path class="st1_bitcoin-2-89" d="M387.4,328.2c-27.8,0-49.7-7.7-49.7-17.5v-24.6c0-0.4,0.3-0.7,0.7-0.7h97.9c0.4,0,0.7,0.3,0.7,0.7v0v24.6&#10;&#9;&#9;C437.1,320.5,415.3,328.2,387.4,328.2z M339.1,286.8v23.9c0,8.8,22.1,16.1,48.3,16.1s48.3-7.4,48.3-16.1v-23.9H339.1z"/>
	<ellipse class="st1_bitcoin-2-89" cx="387.4" cy="286.1" rx="49" ry="16.8"/>
	<path class="st1_bitcoin-2-89" d="M387.4,303.6c-27.8,0-49.7-7.7-49.7-17.5s21.8-17.5,49.7-17.5s49.7,7.7,49.7,17.5S415.3,303.6,387.4,303.6z&#10;&#9;&#9; M387.4,270c-26.2,0-48.3,7.4-48.3,16.1s22.1,16.1,48.3,16.1s48.3-7.4,48.3-16.1S413.6,270,387.4,270L387.4,270z"/>
	<path class="st0_bitcoin-2-89" d="M444.3,250.5v24.6c0,9.3-21.9,16.8-49,16.8s-49-7.5-49-16.8v-24.6H444.3z"/>
	<path class="st1_bitcoin-2-89" d="M395.3,292.6c-27.8,0-49.7-7.7-49.7-17.5v-24.6c0-0.4,0.3-0.7,0.7-0.7l0,0h97.9c0.4,0,0.7,0.3,0.7,0.7&#10;&#9;&#9;c0,0,0,0,0,0v24.6C445,284.9,423.1,292.6,395.3,292.6z M347,251.2v23.9c0,8.8,22.1,16.1,48.3,16.1s48.3-7.4,48.3-16.1v-23.9H347z"/>
	<ellipse class="st1_bitcoin-2-89" cx="395.3" cy="250.5" rx="49" ry="16.8"/>
	<path class="st1_bitcoin-2-89" d="M395.3,268c-27.8,0-49.7-7.7-49.7-17.5s21.8-17.5,49.7-17.5s49.7,7.6,49.7,17.5S423.1,268,395.3,268z&#10;&#9;&#9; M395.3,234.3c-26.2,0-48.3,7.4-48.3,16.1c0,8.8,22.1,16.1,48.3,16.1s48.3-7.4,48.3-16.1S421.5,234.4,395.3,234.3L395.3,234.3z"/>
	<path class="st0_bitcoin-2-89" d="M428.5,221.4v24.6c0,9.3-21.9,16.8-49,16.8s-49-7.5-49-16.8v-24.6H428.5z"/>
	<path class="st1_bitcoin-2-89" d="M379.5,263.5c-27.8,0-49.7-7.7-49.7-17.5v-24.6c0-0.4,0.3-0.7,0.7-0.7l0,0h97.9c0.4,0,0.7,0.3,0.7,0.7&#10;&#9;&#9;c0,0,0,0,0,0v24.6C429.2,255.8,407.4,263.5,379.5,263.5z M331.3,222.1v23.9c0,8.8,22.1,16.1,48.3,16.1s48.3-7.4,48.3-16.1v-23.9&#10;&#9;&#9;H331.3z"/>
	<ellipse class="st1_bitcoin-2-89" cx="379.5" cy="221.4" rx="49" ry="16.8"/>
	<path class="st1_bitcoin-2-89" d="M379.5,238.9c-27.8,0-49.7-7.7-49.7-17.5s21.8-17.5,49.7-17.5s49.7,7.7,49.7,17.5S407.4,238.9,379.5,238.9z&#10;&#9;&#9; M379.5,205.2c-26.2,0-48.3,7.4-48.3,16.1s22.1,16.1,48.3,16.1s48.3-7.4,48.3-16.1S405.7,205.2,379.5,205.2z"/>
	<path class="st0_bitcoin-2-89" d="M439.2,192.2v24.6c0,9.3-21.9,16.9-49,16.9s-49-7.6-49-16.9v-24.6H439.2z"/>
	<path class="st1_bitcoin-2-89" d="M390.3,234.4c-27.8,0-49.7-7.7-49.7-17.6v-24.6c0-0.4,0.3-0.7,0.7-0.7l0,0h97.9c0.4,0,0.7,0.3,0.7,0.7&#10;&#9;&#9;c0,0,0,0,0,0v24.6C439.9,226.6,418.1,234.4,390.3,234.4z M342,192.9v23.9c0,8.8,22.1,16.1,48.3,16.1s48.3-7.4,48.3-16.1v-23.9H342z&#10;&#9;&#9;"/>
	<ellipse class="st0_bitcoin-2-89" cx="390.3" cy="192.2" rx="49" ry="16.8"/>
	<path class="st1_bitcoin-2-89" d="M390.3,209.8c-27.8,0-49.7-7.7-49.7-17.5s21.8-17.5,49.7-17.5s49.7,7.7,49.7,17.5S418.1,209.8,390.3,209.8z&#10;&#9;&#9; M390.3,176.1c-26.2,0-48.3,7.4-48.3,16.1s22.1,16.1,48.3,16.1s48.3-7.4,48.3-16.1S416.4,176.1,390.3,176.1z"/>
	<path class="st2_bitcoin-2-89" d="M390.3,203.1c-20.5,0-41.8-4.1-41.8-10.9s21.2-10.9,41.8-10.9s41.7,4.1,41.7,10.9S410.8,203.1,390.3,203.1z&#10;&#9;&#9; M390.3,182.7c-24.1,0-40.4,4.9-40.4,9.5s16.2,9.5,40.4,9.5s40.4-4.9,40.4-9.5S414.4,182.7,390.3,182.7L390.3,182.7z"/>
	<path class="st3_bitcoin-2-89 targetColor" d="M363.4,191l7.6,0.4l2.2-1.3h-0.5l-6.5-0.3h-0.6l2.7-1.7l7.8,0.4l5.5-3.4l5.1,0.3c-0.7,0.4-1.4,0.9-2.1,1.3&#10;&#9;&#9;c-0.9,0.6-0.5,0.9,1.2,1l20.3,1h0.4c1,0.1,1.9-0.1,2.8-0.5c0.6-0.3,1.1-0.7,1.7-1l0.3-0.2l6.2-0.1l-5.5,3.4l7.9,0.4l-2.7,1.7&#10;&#9;&#9;l-7.8-0.4l-2.2,1.3l7.7,0.4l-2.7,1.7h-0.6l-6.5-0.3c-0.8,0-0.7-0.1-1.3,0.2c-1.8,1-3.7,1.8-5.6,2.5c-2.8,0.9-5.7,1.5-8.6,1.7&#10;&#9;&#9;c-2,0.2-4,0.2-6,0c-0.9-0.1-1.7-0.2-2.6-0.4c-1.5-0.4-1.6-1.1-1.2-1.8c0.1-0.2,0.2-0.3,0.4-0.5l-1,0.3c-1.1,0.3-2.1,0.5-3.2,0.6&#10;&#9;&#9;c-1.8,0.2-3.7,0.3-5.5,0.2c-3.3-0.2-4.8-0.9-4.4-2c0.5-0.9,1.2-1.7,2.1-2.3c0.2-0.1,0.1-0.2-0.2-0.2l-6.3-0.3l-1-0.1L363.4,191z&#10;&#9;&#9; M393,191.1l-1.8,1.1c-1.1,0.6-2.1,1.4-2.9,2.3c-0.3,0.5-0.3,1,0.7,1.3c2.3,0.4,4.6,0.3,6.8-0.4c1.4-0.4,2.8-1,4.1-1.6&#10;&#9;&#9;c1.2-0.7,2.3-1.4,3.4-2l0.1-0.1L393,191.1z M387.8,190.8l-8.5-0.4c-0.3,0-0.6,0-0.9,0.2c-1.1,0.6-2.1,1.3-3.1,2.1&#10;&#9;&#9;c-0.5,0.4-0.8,0.9-0.5,1.3c0.7,0.7,4.1,1,7.3-0.1c1-0.3,2-0.7,2.9-1.2c1.2-0.6,2.1-1.2,3.2-1.8L387.8,190.8z" style="fill: rgb(187, 104, 253);"/>
</g>
<g id="Coin_stack_2_bitcoin-2-89">
	<path class="st0_bitcoin-2-89" d="M251.7,359.3v24.6c0,9.3,21.9,16.8,48.9,16.8s49-7.5,49-16.8v-24.6H251.7z"/>
	<path class="st1_bitcoin-2-89" d="M300.6,401.5c-27.8,0-49.6-7.7-49.6-17.5v-24.6c0-0.4,0.3-0.7,0.7-0.7c0,0,0,0,0,0h97.9c0.4,0,0.7,0.3,0.7,0.7&#10;&#9;&#9;v0v24.6C350.3,393.7,328.5,401.5,300.6,401.5z M252.4,360v23.9c0,8.8,22.1,16.1,48.2,16.1s48.3-7.4,48.3-16.1V360H252.4z"/>
	<ellipse class="st1_bitcoin-2-89" cx="300.6" cy="359.3" rx="49" ry="16.8"/>
	<path class="st1_bitcoin-2-89" d="M300.6,376.9c-27.8,0-49.6-7.7-49.6-17.5s21.8-17.5,49.6-17.5s49.7,7.7,49.7,17.5S328.5,376.9,300.6,376.9z&#10;&#9;&#9; M300.6,343.2c-26.1,0-48.2,7.4-48.2,16.1s22.1,16.1,48.2,16.1s48.3-7.4,48.3-16.1S326.8,343.2,300.6,343.2z"/>
	<path class="st0_bitcoin-2-89" d="M263.2,325.6v24.6c0,9.3,21.9,16.8,49,16.8s49-7.5,49-16.8v-24.6H263.2z"/>
	<path class="st1_bitcoin-2-89" d="M312.2,367.8c-27.9,0-49.7-7.7-49.7-17.5v-24.6c0-0.4,0.3-0.7,0.7-0.7h0h97.9c0.4,0,0.7,0.3,0.7,0.7v0v24.6&#10;&#9;&#9;C361.8,360.1,340,367.8,312.2,367.8z M263.9,326.4v23.9c0,8.8,22.1,16.1,48.3,16.1s48.2-7.4,48.2-16.1v-23.9H263.9z"/>
	<ellipse class="st1_bitcoin-2-89" cx="312.2" cy="325.6" rx="49" ry="16.8"/>
	<path class="st1_bitcoin-2-89" d="M312.2,343.2c-27.9,0-49.7-7.7-49.7-17.5s21.8-17.5,49.7-17.5s49.6,7.7,49.6,17.5S340,343.2,312.2,343.2z&#10;&#9;&#9; M312.2,309.5c-26.2,0-48.3,7.4-48.3,16.1s22.1,16.1,48.3,16.1s48.2-7.4,48.2-16.1S338.3,309.5,312.2,309.5z"/>
	<path class="st0_bitcoin-2-89" d="M253.2,288.1v24.6c0,9.3,21.9,16.8,49,16.8s49-7.5,49-16.8v-24.6H253.2z"/>
	<path class="st1_bitcoin-2-89" d="M302.2,330.2c-27.8,0-49.7-7.7-49.7-17.5v-24.6c0-0.4,0.3-0.7,0.7-0.7c0,0,0,0,0,0h97.9c0.4,0,0.7,0.3,0.7,0.7&#10;&#9;&#9;v0v24.6C351.8,322.5,330,330.2,302.2,330.2z M253.9,288.8v23.9c0,8.8,22.1,16.1,48.3,16.1s48.3-7.4,48.3-16.1v-23.9H253.9z"/>
	<ellipse class="st0_bitcoin-2-89" cx="302.2" cy="288.1" rx="49" ry="16.8"/>
	<path class="st1_bitcoin-2-89" d="M302.2,305.6c-27.8,0-49.7-7.7-49.7-17.5s21.8-17.5,49.7-17.5s49.7,7.7,49.7,17.5S330,305.6,302.2,305.6z&#10;&#9;&#9; M302.2,272c-26.2,0-48.3,7.4-48.3,16.1s22.1,16.1,48.3,16.1s48.3-7.4,48.3-16.1S328.3,272,302.2,272L302.2,272z"/>
	<path class="st2_bitcoin-2-89" d="M302.2,299c-20.5,0-41.8-4.1-41.8-10.9s21.2-10.9,41.8-10.9s41.8,4.1,41.8,10.9S322.7,299,302.2,299z&#10;&#9;&#9; M302.2,278.6c-24.1,0-40.4,4.9-40.4,9.5s16.2,9.5,40.4,9.5s40.4-4.9,40.4-9.5S326.3,278.6,302.2,278.6L302.2,278.6z"/>
	<path class="st3_bitcoin-2-89 targetColor" d="M332.3,288.5l-1,0.1l-6.3,0.3c-0.4,0-0.4,0.1-0.3,0.2c0.9,0.6,1.6,1.4,2.1,2.3c0.4,1.2-1.1,1.8-4.4,2&#10;&#9;&#9;c-1.8,0.1-3.7,0.1-5.5-0.2c-1.1-0.1-2.2-0.4-3.2-0.6l-1-0.3c0.1,0.2,0.3,0.4,0.4,0.5c0.4,0.8,0.3,1.4-1.2,1.8&#10;&#9;&#9;c-0.8,0.2-1.7,0.4-2.6,0.4c-2,0.2-4,0.2-6,0c-2.9-0.2-5.8-0.7-8.6-1.7c-1.9-0.7-3.8-1.5-5.6-2.5c-0.6-0.3-0.5-0.3-1.3-0.2l-6.5,0.3&#10;&#9;&#9;h-0.6l-2.7-1.6l7.7-0.4l-2.2-1.3l-7.8,0.4l-2.7-1.7l7.9-0.4l-5.5-3.4l6.2,0l0.3,0.2c0.6,0.3,1.1,0.7,1.7,1c0.9,0.4,1.8,0.6,2.8,0.5&#10;&#9;&#9;h0.4l20.3-1c1.6-0.1,2.1-0.5,1.2-1c-0.6-0.4-1.4-0.8-2.1-1.3l5.1-0.3l5.5,3.4l7.8-0.4l2.7,1.7l-0.6,0l-6.5,0.3h-0.5l2.2,1.3&#10;&#9;&#9;l7.6-0.4L332.3,288.5z M289.5,287.5c0,0,0.1,0.1,0.1,0.1c1.1,0.7,2.2,1.4,3.4,2c1.3,0.7,2.7,1.2,4.1,1.6c2.2,0.7,4.6,0.8,6.8,0.4&#10;&#9;&#9;c1-0.3,1-0.8,0.7-1.3c-0.8-0.9-1.8-1.7-2.9-2.3L300,287L289.5,287.5z M304.6,286.8c1.1,0.6,2,1.2,3.2,1.8c0.9,0.5,1.9,0.9,3,1.2&#10;&#9;&#9;c3.3,1,6.6,0.8,7.3,0.1c0.4-0.4,0-0.8-0.5-1.3c-1-0.8-2-1.5-3.1-2.1c-0.3-0.2-0.5-0.2-0.8-0.2l-8.5,0.4&#10;&#9;&#9;C305,286.7,304.9,286.7,304.6,286.8L304.6,286.8z" style="fill: rgb(187, 104, 253);"/>
</g>
<g id="Character_bitcoin-2-89">
	<polygon class="st0_bitcoin-2-89" points="179.5,359.7 188.5,372.1 197.6,363.2 190.4,349.4 &#9;"/>
	<path class="st1_bitcoin-2-89" d="M188.5,372.7L188.5,372.7c-0.2,0-0.4-0.1-0.5-0.3l-9-12.4c-0.2-0.3-0.2-0.6,0.1-0.8L190,349&#10;&#9;&#9;c0.1-0.1,0.3-0.2,0.5-0.2c0.2,0,0.4,0.2,0.5,0.3l7.2,13.7c0.1,0.3,0.1,0.6-0.1,0.8l-9.1,8.9C188.9,372.7,188.7,372.7,188.5,372.7z&#10;&#9;&#9; M180.3,359.7l8.3,11.4l8.2-8.1l-6.6-12.6L180.3,359.7z"/>
	<polygon class="st0_bitcoin-2-89" points="79.8,373.5 71.2,384 61.5,377.4 70.7,361.9 &#9;"/>
	<path class="st1_bitcoin-2-89" d="M71.2,384.6c-0.1,0-0.2,0-0.3-0.1l-9.6-6.5c-0.3-0.2-0.4-0.6-0.2-0.9l9.1-15.6c0.1-0.2,0.3-0.3,0.5-0.3&#10;&#9;&#9;c0.2,0,0.4,0.1,0.6,0.2l9.1,11.6c0.2,0.2,0.2,0.6,0,0.8l-8.6,10.5C71.6,384.5,71.4,384.6,71.2,384.6z M62.4,377.2l8.7,5.9l7.9-9.6&#10;&#9;&#9;L70.8,363L62.4,377.2z"/>
	<path class="st1_bitcoin-2-89" d="M127.8,254.6c0,0-6.6,65.6-11.2,77c-7.2,17.8-36.8,44-36.8,44l-13.5-9.7c0,0,11.4-25.9,18.4-42.8&#10;&#9;&#9;c1.6-3.9,0-69.6,0-69.6L127.8,254.6z"/>
	<path class="st1_bitcoin-2-89" d="M84.7,253.4c0,0,15.2,13,20.4,21s73.1,87.2,73.1,87.2l15.9-9.5l-56.7-108.6L84.7,253.4z"/>
	<path class="st0_bitcoin-2-89" d="M125.5,174c-3.5-1.8,6.4-2.9,13.4,14.2l12.4,30.2l39.1-4.6l9.4,13.8c0,0-55,10.8-56.4,9.6&#10;&#9;&#9;C124.9,220,125.5,174,125.5,174z"/>
	<path class="st1_bitcoin-2-89" d="M144.1,237.8c-0.4,0-0.7,0-1.1-0.2c-7.8-7.2-13.2-20.1-16.1-38.4c-1.3-8.2-1.9-16.6-2-24.9&#10;&#9;&#9;c-0.5-0.4-0.8-0.8-0.7-1.2c0-0.2,0.2-0.7,1-0.8c2.5-0.2,9.3,3.2,14.3,15.6l12.2,29.8l38.7-4.6c0.2,0,0.5,0.1,0.6,0.3l9.4,13.8&#10;&#9;&#9;c0.1,0.2,0.1,0.4,0.1,0.6c-0.1,0.2-0.3,0.3-0.5,0.4C177,232.7,149.9,237.8,144.1,237.8z M143.8,236.6c2.7,0.4,33.8-5.3,54.9-9.5&#10;&#9;&#9;l-8.6-12.7l-38.8,4.6c-0.3,0-0.6-0.1-0.7-0.4l-12.4-30.2c-4.5-11.1-10-14.1-12.2-14.6c0,0.1,0,0.1,0,0.2&#10;&#9;&#9;C126.2,174.4,125.8,219.8,143.8,236.6L143.8,236.6z"/>
	<path class="st0_bitcoin-2-89" d="M115.3,133.6c-2.1-2.1-4.6-4-7.5-4.6c-2.5-0.5-3.9,0.5-6.1,1.3c-0.9,0.3-1,1.6-1.9,1.9s-2.7-0.7-3.7-0.8&#10;&#9;&#9;c-6.3-0.6-12.3,2.7-15.3,8.2c-2.3,4.3-3.3,9.2-5.7,13.4c-2.7,5.1-7.1,9.1-10,14.1c-3.4,5.7-4.7,12.8-2.7,19.2&#10;&#9;&#9;c3.9,12.9,15.5,12.6,26.7,12.7c8.1,0,16.1-1.7,23.5-5.1c5.8-2.7,16.4-8.4,17.8-15.3c1.4-6.5-1.1-16.7-2.8-23&#10;&#9;&#9;C125.6,147.2,121.3,139.7,115.3,133.6z"/>
	<path class="st1_bitcoin-2-89" d="M89.3,199.6h-0.9c-11.1,0-22.6,0-26.6-13.2c-1.9-6.2-0.8-13.6,2.8-19.7c1.4-2.3,3.1-4.6,4.8-6.7&#10;&#9;&#9;c2-2.3,3.7-4.8,5.2-7.4c1.1-2.1,2-4.3,2.8-6.6c0.8-2.4,1.8-4.7,2.9-6.9c3.1-5.8,9.4-9.2,16-8.6c0.6,0.1,1.1,0.2,1.6,0.4&#10;&#9;&#9;c0.6,0.3,1.2,0.4,1.8,0.4c0.2-0.1,0.4-0.3,0.6-0.6c0.3-0.5,0.7-0.9,1.2-1.2c0.4-0.1,0.8-0.3,1.2-0.5c1.6-0.9,3.5-1.2,5.3-0.8&#10;&#9;&#9;c3.4,0.7,6.1,3.1,7.8,4.8l0,0c6,6.2,10.3,13.9,12.4,22.3c1.9,6.9,4.2,16.9,2.8,23.3c-1.4,6.7-10.6,12.2-18.2,15.8&#10;&#9;&#9;C105.6,197.9,97.5,199.6,89.3,199.6z M94.8,131.9c-5.6-0.1-10.7,3-13.3,7.9c-1.1,2.2-2,4.4-2.8,6.7c-0.8,2.3-1.7,4.6-2.8,6.8&#10;&#9;&#9;c-1.5,2.7-3.3,5.3-5.4,7.7c-1.7,2.1-3.3,4.2-4.7,6.5c-3.5,5.8-4.5,12.8-2.7,18.6c3.7,12.1,14.2,12.1,25.3,12.2h0.8&#10;&#9;&#9;c8,0,15.9-1.7,23.2-5.1c10.2-4.8,16.4-10,17.4-14.8c1.3-6.1-1-15.9-2.8-22.7c-2-8.2-6.2-15.6-12.1-21.6l0,0c-2.6-2.6-4.8-4-7.2-4.4&#10;&#9;&#9;c-1.5-0.3-3.1,0-4.5,0.8c-0.4,0.2-0.8,0.3-1.2,0.5c-0.2,0.2-0.4,0.4-0.6,0.7c-0.3,0.6-0.8,1-1.4,1.2c-0.9,0.1-1.8,0-2.6-0.4&#10;&#9;&#9;c-0.4-0.2-0.9-0.3-1.3-0.4C95.7,132,95.2,131.9,94.8,131.9z"/>
	<path class="st3_bitcoin-2-89 targetColor" d="M70.9,185.8c7.4-15.4,45.2-26.6,59.3-14.7s20.3,80.1,20.3,80.1l-69.5,14C81,265.3,63.5,201.2,70.9,185.8z" style="fill: rgb(187, 104, 253);"/>
	<path class="st1_bitcoin-2-89" d="M117.2,182.8c3.2,14.2,13.6,74.8,13.6,74.8l-16.2,2.3l-16.8-77.2C97.8,182.6,101.2,179.8,117.2,182.8z"/>
	<path class="st0_bitcoin-2-89" d="M114,172.4l2.8,11.1c0,0-0.2,5.4-8,5.6s-10.3-4.6-10.3-4.6l-4.5-20.8c0,0,9.9-9.2,5.2-20.6&#10;&#9;&#9;c0,0,6.9,8.2,17.5,3.9c0,0,2.9,10.6,3.5,16.5S114,172.4,114,172.4z"/>
	<path class="st1_bitcoin-2-89" d="M108.4,189.7c-7.9,0-10.4-4.8-10.5-5l-0.1-0.2l-4.5-20.8c0-0.2,0-0.5,0.2-0.7c0.1-0.1,9.5-9,5.1-19.9&#10;&#9;&#9;c-0.1-0.4,0-0.8,0.4-0.9c0.3-0.1,0.6,0,0.8,0.2c4.2,4.7,10.9,6.1,16.7,3.7c0.4-0.1,0.8,0,0.9,0.4c0,0,0,0.1,0,0.1&#10;&#9;&#9;c0.1,0.4,3,10.7,3.6,16.6c0.6,5.4-4.5,8.6-6.2,9.5l2.7,10.5c0,0.1,0,0.1,0,0.2c0,0.1-0.3,6.1-8.7,6.3L108.4,189.7z M99.2,184.1&#10;&#9;&#9;c0.3,0.6,2.7,4.3,9.6,4.2c6.6-0.1,7.2-4.1,7.3-4.8l-2.8-11c-0.1-0.3,0.1-0.7,0.4-0.8c0.1,0,6.5-3,5.9-8.3&#10;&#9;&#9;c-0.5-4.9-2.7-13.1-3.3-15.6c-5.3,1.9-11.2,1-15.6-2.5c2.3,9.5-4.4,17-5.9,18.6L99.2,184.1z"/>
	<path class="st0_bitcoin-2-89" d="M97.4,162c-3.1-5.7-12.5-1.8-7.8,4.3c2.1,2.8,6,3.4,8.8,1.3c0,0,0,0,0,0"/>
	<path class="st1_bitcoin-2-89" d="M94.8,169.6c-0.3,0-0.5,0-0.8-0.1c-1.9-0.2-3.7-1.2-4.9-2.8c-2-2.5-1.5-4.5-1.1-5.4c0.9-1.7,2.7-2.8,4.6-2.8&#10;&#9;&#9;c2.2-0.1,4.3,1.2,5.4,3.1c0.2,0.3,0.1,0.8-0.3,0.9c0,0,0,0,0,0c-0.3,0.2-0.7,0.1-1-0.2c0,0,0-0.1,0-0.1c-0.8-1.5-2.4-2.4-4-2.4&#10;&#9;&#9;c-1.4,0-2.7,0.8-3.4,2c-0.5,1.1-0.2,2.5,0.9,4c1,1.3,2.4,2.1,4,2.3c1.4,0.1,2.8-0.3,3.8-1.2c0.3-0.2,0.7-0.2,1,0.1&#10;&#9;&#9;c0.2,0.3,0.2,0.7-0.1,1C97.7,169.1,96.3,169.6,94.8,169.6z"/>
	<path class="st0_bitcoin-2-89" d="M109.4,155.1c0,0,5.5,4.6,4.9,5.8s-3.3,1.4-3.3,1.4"/>
	<path class="st1_bitcoin-2-89" d="M111,163c-0.4,0-0.7-0.3-0.7-0.7c0-0.4,0.3-0.7,0.7-0.7c0.9,0,2.5-0.4,2.8-1c0-0.6-2.2-2.9-4.8-5&#10;&#9;&#9;c-0.3-0.3-0.3-0.7-0.1-1c0.2-0.3,0.7-0.3,1-0.1c2.7,2.2,5.8,5.2,5.1,6.7S111.4,163,111,163z"/>
	<ellipse transform="matrix(0.9514 -0.3079 0.3079 0.9514 -42.0743 39.2472)" class="st1_bitcoin-2-89" cx="103.4" cy="153" rx="1" ry="1.4"/>
	<ellipse transform="matrix(0.9514 -0.3079 0.3079 0.9514 -41.4811 41.92)" class="st1_bitcoin-2-89" cx="112.1" cy="152.4" rx="1" ry="1.4"/>
	<path class="st1_bitcoin-2-89" d="M110.8,168c-0.4,0-0.8,0-1.1-0.1c-2.2-0.5-4-1.9-5-3.9c-0.2-0.3-0.1-0.8,0.3-1c0.3-0.2,0.7-0.1,0.9,0.2&#10;&#9;&#9;c0.8,1.6,2.3,2.8,4,3.2c1.7,0.2,3.3-0.3,4.7-1.3c0.3-0.2,0.8-0.2,1,0.1c0.2,0.3,0.2,0.8-0.1,1c0,0,0,0,0,0&#10;&#9;&#9;C114.1,167.4,112.5,167.9,110.8,168z"/>
	<path class="st1_bitcoin-2-89" d="M114,172.4c0,0-5.8,1.3-8.8,0.4c0,0,3.7,6.1,10.4,6.3L114,172.4z"/>
	<path class="st1_bitcoin-2-89" d="M115.6,179.7L115.6,179.7c-7-0.2-10.8-6.4-11-6.6c-0.2-0.3,0-0.8,0.3-0.9c0.2-0.1,0.3-0.1,0.5-0.1&#10;&#9;&#9;c2.8,0.9,8.4-0.4,8.4-0.4c0.4-0.1,0.8,0.1,0.8,0.5l1.6,6.7c0.1,0.2,0,0.4-0.1,0.6C116,179.7,115.8,179.7,115.6,179.7z M106.8,173.7&#10;&#9;&#9;c2,2.4,4.8,4,7.9,4.5l-1.2-5.1C111.3,173.6,109,173.8,106.8,173.7L106.8,173.7z"/>
	<path class="st1_bitcoin-2-89" d="M123.6,187.8c-1.6-0.1-3.1-0.3-4.6-0.8c-0.3-0.1-0.6-0.4-0.5-0.7c0.1-0.3,0.4-0.6,0.7-0.5c0,0,0.1,0,0.1,0&#10;&#9;&#9;c1.1,0.3,4.5,1.1,6,0.4c0.2-0.9-3.8-6.2-7.7-10.5c-0.2-0.3-0.2-0.7,0-0.9c0.2-0.2,0.6-0.3,0.9,0c0,0,0,0,0,0c2,2.2,8.4,9.5,8,11.7&#10;&#9;&#9;c-0.1,0.4-0.3,0.7-0.7,0.8C125.1,187.6,124.4,187.8,123.6,187.8z"/>
	<path class="st1_bitcoin-2-89" d="M92.7,188.5c-1.2,0.1-2.4-0.2-3.5-0.9c-1.8-1.3,0.4-5,3-8.9c0.4-0.5,0.7-1,1-1.5c0.1-0.3,0.5-0.5,0.8-0.4&#10;&#9;&#9;c0.3,0.1,0.5,0.5,0.4,0.8c0,0,0,0,0,0c-0.3,0.6-0.7,1.2-1.1,1.8c-3.6,5.3-3.8,6.8-3.4,7.2c1.4,1,4.4,0.6,5.4,0.3&#10;&#9;&#9;c0.3-0.1,0.7,0.1,0.8,0.5c0.1,0.3-0.1,0.7-0.5,0.8l0,0C94.7,188.4,93.7,188.5,92.7,188.5z"/>
	<circle class="st1_bitcoin-2-89" cx="220.3" cy="186.8" r="81.2"/>
	<circle class="st0_bitcoin-2-89" cx="215.8" cy="180.4" r="81.2"/>
	<path class="st1_bitcoin-2-89" d="M215.9,262.3c-45.2,0.1-82-36.5-82-81.7s36.5-82,81.7-82s82,36.5,82,81.7c0,4.1-0.3,8.2-0.9,12.2l-0.6-0.1&#10;&#9;&#9;l0.6,0.1C290.8,232.5,256.4,262.2,215.9,262.3L215.9,262.3z M215.7,99.8c-44.5,0-80.6,36.1-80.6,80.6s36.1,80.6,80.6,80.6&#10;&#9;&#9;c39.9,0,73.8-29.2,79.7-68.7l0,0c6.5-44.1-23.9-85.1-68-91.6C223.6,100.1,219.6,99.8,215.7,99.8z"/>
	<path class="st2_bitcoin-2-89" d="M215.8,244.8c-35.6,0-64.4-28.8-64.4-64.4c0-35.6,28.8-64.4,64.4-64.4c35.6,0,64.4,28.8,64.4,64.4&#10;&#9;&#9;c0,3.2-0.2,6.4-0.7,9.5C274.9,221.5,247.7,244.9,215.8,244.8z M215.6,117.4c-34.9,0-63.2,28.3-63.2,63.2&#10;&#9;&#9;c0,34.9,28.3,63.2,63.2,63.2s63.2-28.3,63.2-63.2c0-31.3-22.9-57.8-53.8-62.5C221.9,117.7,218.8,117.4,215.6,117.4L215.6,117.4z"/>
	<path class="st3_bitcoin-2-89 targetColor" d="M232.2,129.2c-0.1,0.7-0.1,1.4-0.2,2.1c-0.6,4.3-1.3,8.6-1.9,12.8c-0.1,0.7,0,1,0.8,1.2c4.4,1,8.6,2.7,12.4,5&#10;&#9;&#9;c5.9,3.8,8.3,9,7.6,15.9c-0.2,3.5-1.6,6.8-3.8,9.5c-1.4,1.5-3,2.7-4.8,3.5c-0.5,0.2-1.1,0.5-1.8,0.8c1,0.5,1.8,0.9,2.7,1.3&#10;&#9;&#9;c3.9,2.1,7.1,4.9,8.3,9.3c0.5,2.1,0.7,4.2,0.6,6.3c-0.1,3.9-1.2,7.7-3.1,11.2c-2.8,5.2-7.2,8.1-12.9,9.4c-5.1,1-10.2,1.2-15.4,0.6&#10;&#9;&#9;c-1.9-0.2-1.6-0.2-1.8,1.4c-0.7,4.4-1.3,8.9-2,13.3l-0.2,1.1l-9.7-1.4l2.4-15.8l-7.7-1.1l-2.4,15.8l-9.7-1.4l2.4-16.1l-19.5-2.9&#10;&#9;&#9;l3.7-11.3c0.4,0,0.8,0.1,1.1,0.1c2,0.3,4,0.6,6,0.9c1.9,0.4,3.7-0.8,4.1-2.7c0-0.1,0-0.2,0.1-0.3c0-0.2,0.1-0.5,0.1-0.7l6.1-41.3&#10;&#9;&#9;c0.5-3.3-1.1-5.6-4.4-6.2c-2.4-0.4-4.9-0.7-7.4-1.1l1.5-10.4l19.4,2.9l2.4-15.9l9.6,1.4c0,0.4,0,0.8-0.1,1.2l-2,13.1l-0.2,1.1&#10;&#9;&#9;l7.7,1.1l2.3-15.5L232.2,129.2z M203.6,204c0.2,0.1,0.4,0.1,0.6,0.1c3.9,0.5,7.8,1.1,11.7,1.4c3.5,0.4,7,0,10.3-1.1&#10;&#9;&#9;c4.6-1.5,7.2-6.4,5.8-11c-1-3-3.1-4.9-5.8-6.2c-4-2.1-8.4-2.9-12.9-3.7c-2.1-0.4-4.3-0.6-6.5-1L203.6,204z M208.2,173.2&#10;&#9;&#9;c3.6,0.4,7.1,0.9,10.6,1.1c2.5,0.1,5-0.2,7.4-0.8c6.9-2,7.4-9.2,4.4-13.2c-1.7-2.2-4.1-3.2-6.6-4.1c-3.9-1.4-7.9-1.8-12-2.4&#10;&#9;&#9;c-0.8-0.1-1.1,0.1-1.3,0.9c-0.8,5.8-1.7,11.5-2.6,17.3C208.2,172.3,208.2,172.6,208.2,173.2L208.2,173.2z" style="fill: rgb(187, 104, 253);"/>
	<path class="st0_bitcoin-2-89" d="M85.8,189.2c15.5,7.8,25.1,19.3,33,18s36.6-16.2,36.6-16.2s3.4-9.2,5.8-10.4s0.9,4.5,0.5,8.7&#10;&#9;&#9;c0,0,13.7-7.2,14.7-2c1.3,6.3-4.1,7.8-10.3,11.7s-43.7,31.6-52.1,29.2s-35.6-18.5-36.4-19C68.2,203.7,70.3,181.4,85.8,189.2z"/>
	<path class="st1_bitcoin-2-89" d="M115.2,228.9c-0.5,0-0.9-0.1-1.4-0.2c-7.4-2.2-29.7-15-36.3-18.8l-0.3-0.2c-5.9-3.4-7.4-13-4.5-18.5&#10;&#9;&#9;c1.2-2.2,4.8-6.8,13.3-2.6l0,0c5.6,3,11.1,6.4,16.2,10.2c6.7,4.7,11.9,8.5,16.4,7.7c7.3-1.2,33.6-14.7,36.3-16.1&#10;&#9;&#9;c0.6-1.7,3.6-9.3,6-10.5c0.5-0.3,1.1-0.3,1.6,0c1,0.7,0.8,2.7,0.2,6.1c-0.1,0.7-0.2,1.4-0.3,2c2.8-1.4,9.9-4.6,13.1-3.1&#10;&#9;&#9;c0.8,0.4,1.4,1.1,1.5,2c1.1,5.6-2.6,7.7-7.3,10.4c-1,0.6-2.1,1.2-3.3,2s-3.2,2.2-5.9,4C141.3,216.8,122.7,228.9,115.2,228.9z&#10;&#9;&#9; M79.8,188.2c-2.5,0-4.8,1.4-5.9,3.6c-2.7,5-1.4,13.6,4,16.7l0.3,0.2c6.6,3.9,28.7,16.6,36,18.7c6.6,1.9,33.9-17,45.6-25&#10;&#9;&#9;c2.7-1.9,4.8-3.4,6-4.1s2.3-1.4,3.3-2c4.6-2.6,7.6-4.4,6.7-9.1c-0.1-0.5-0.4-0.9-0.8-1.1c-2.7-1.3-10.3,2.1-13,3.6&#10;&#9;&#9;c-0.2,0.1-0.5,0.1-0.6,0c-0.2-0.1-0.3-0.4-0.3-0.6c0.1-1,0.3-2.2,0.4-3.3c0.2-1.7,0.6-4.4,0.3-4.9c0,0-0.1,0-0.3,0.1&#10;&#9;&#9;c-1.6,0.8-4.2,6.6-5.5,10c-0.1,0.1-0.2,0.3-0.3,0.4c-1.2,0.6-29,15.1-36.9,16.4c-5,0.8-10.4-3.1-17.3-7.9&#10;&#9;&#9;c-5.1-3.8-10.4-7.2-16-10.1C83.8,188.8,81.8,188.3,79.8,188.2z"/>
	<path class="st3_bitcoin-2-89 targetColor" d="M75.6,212.8l29.6,16.6l9.2-27.6c0,0-34.2-19.4-38.9-17.7S64.3,200.7,75.6,212.8z" style="fill: rgb(187, 104, 253);"/>
	<path class="st1_bitcoin-2-89" d="M105.2,230c-0.1,0-0.2,0-0.3-0.1l-29.6-16.5c-0.3-0.2-0.4-0.6-0.3-0.9c0,0,0,0,0,0c0.2-0.3,0.6-0.4,0.9-0.2&#10;&#9;&#9;c0,0,0,0,0,0l29.6,16.6c0.3,0.2,0.4,0.6,0.3,0.9c0,0,0,0,0,0C105.6,229.9,105.4,230,105.2,230z"/>
	<path class="st1_bitcoin-2-89" d="M114.4,202.4c-0.1,0-0.2,0-0.3-0.1l-30.1-15c-0.3-0.2-0.4-0.5-0.3-0.9c0.2-0.3,0.5-0.4,0.9-0.3l0,0l30.1,15&#10;&#9;&#9;c0.3,0.1,0.5,0.5,0.3,0.9C114.9,202.3,114.7,202.4,114.4,202.4L114.4,202.4z"/>
	<path class="st1_bitcoin-2-89" d="M61.5,374.3L55,386.1c5.6,3.4,11.8,5.5,18.2,6.2c1.8,0.2,14.9,0.6,14.4-1.8s-14.3-7.7-14.3-7.7l3.8-3.8&#10;&#9;&#9;L61.5,374.3z"/>
	<path class="st1_bitcoin-2-89" d="M197.6,359.3l-13.4,9.9c0,0,8.1,13.5,9,13.2S219,366,217,364.8c-5.4-3.4-15.4,1.5-15.4,1.5L197.6,359.3z"/>
</g>
</svg>