<svg version="1.1" id="Layer_1" xmlns="http://www.w3.org/2000/svg" xmlns:xlink="http://www.w3.org/1999/xlink" x="0px" y="0px" viewBox="0 0 500 500" style="width: 188px;" xml:space="preserve" data-imageid="bitcoin-26" imageName="Bitcoin" class="illustrations_image">
<style type="text/css">
	.st0_bitcoin-26{fill:#FFFFFF;}
	.st1_bitcoin-26{fill:#231F20;}
	.st2_bitcoin-26{fill:#68E1FD;}
	.st3_bitcoin-26{fill:#D1D3D4;}
</style>
<g id="Character_body_back_bitcoin-26">
	<path class="st0_bitcoin-26" d="M171.8,200c5.6,7.7,26.4,49,27.7,50.9c1.8,2.6,5.3,3.6,7.4,6.1c2.3,2.8,3.6,6.3,3.6,9.9c0,0.6-0.1,1.2-0.4,1.7&#10;&#9;&#9;c-0.3,0.4-0.6,0.7-1.1,1c-2.2,1.4-4.7,2.2-7.3,2.3c-1.4,0-5.3,0.3-6.2-0.9c-1.2-1.5-6.9-14.5-6.9-14.5l-34.7-44.8"/>
	<path class="st1_bitcoin-26" d="M199.6,272.8c-2.1,0-3.9-0.2-4.7-1.2c-1.2-1.5-6.3-12.9-7-14.6l-34.7-44.7c-0.2-0.3-0.2-0.8,0.1-1&#10;&#9;&#9;s0.8-0.2,1,0.1l34.7,44.8l0.1,0.2c2.3,5.2,6,13.3,6.8,14.4c0.4,0.5,2.2,0.7,5.3,0.6h0.3c2.5-0.1,4.9-0.9,6.9-2.2&#10;&#9;&#9;c0.3-0.2,0.6-0.4,0.8-0.7c0.2-0.4,0.3-0.9,0.3-1.4c0-3.5-1.2-6.8-3.4-9.5c-1-1.1-2.2-2-3.5-2.8c-1.5-0.9-2.9-2-4-3.4&#10;&#9;&#9;c-0.4-0.6-2.3-4.3-5.9-11.2c-6.7-12.9-17.9-34.5-21.8-39.8c-0.2-0.3-0.2-0.8,0.2-1c0.3-0.2,0.8-0.2,1,0.2&#10;&#9;&#9;c3.9,5.4,14.7,26.2,21.9,39.9c3,5.8,5.4,10.4,5.8,11c1,1.2,2.2,2.2,3.6,3c1.4,0.8,2.7,1.9,3.8,3.1c2.4,2.9,3.8,6.6,3.8,10.4&#10;&#9;&#9;c0,0.7-0.1,1.5-0.5,2.1c-0.3,0.5-0.8,0.9-1.3,1.2c-2.3,1.5-4.9,2.3-7.7,2.4h-0.3C200.8,272.8,200.2,272.8,199.6,272.8z"/>
	<polygon class="st0_bitcoin-26" points="200.5,380 201.8,393.3 220.4,391.9 218.7,375.8 &#9;"/>
	<path class="st1_bitcoin-26" d="M201.8,394.1c-0.4,0-0.7-0.3-0.7-0.7l-1.3-13.4c0-0.4,0.2-0.7,0.6-0.8l18.2-4.1c0.2,0,0.4,0,0.6,0.1&#10;&#9;&#9;c0.2,0.1,0.3,0.3,0.3,0.5l1.8,16c0,0.2,0,0.4-0.2,0.5c-0.1,0.2-0.3,0.2-0.5,0.3L201.8,394.1L201.8,394.1z M201.3,380.5l1.2,12&#10;&#9;&#9;l17.2-1.3l-1.6-14.5L201.3,380.5z"/>
	<polygon class="st0_bitcoin-26" points="67,336.2 53.5,343.3 57.6,357.2 70.3,354.3 &#9;"/>
	<path class="st1_bitcoin-26" d="M57.6,357.9c-0.3,0-0.6-0.2-0.7-0.5l-4.2-13.9c-0.1-0.3,0.1-0.7,0.4-0.9l13.6-7c0.2-0.1,0.4-0.1,0.7,0&#10;&#9;&#9;c0.2,0.1,0.3,0.3,0.4,0.5l3.3,18c0.1,0.4-0.2,0.8-0.6,0.8l-12.7,2.9L57.6,357.9z M54.3,343.6l3.8,12.7l11.4-2.6l-3-16.4L54.3,343.6&#10;&#9;&#9;z"/>
	<path class="st1_bitcoin-26" d="M105.9,228.8l1.2,85.4l-44.5,21.1l4.3,22.5c0,0,67.8-15.4,77.2-28.6s10.9-45,10.9-45l31.1,31.2l11.9,67.8&#10;&#9;&#9;l23.7-1.3c0,0-3-49.7-3-68.2s-47-82-47-82L105.9,228.8z"/>
	<path class="st1_bitcoin-26" d="M198.1,384c-0.3,0-0.6-0.2-0.7-0.6l-11.9-67.6l-29.9-30c-0.4,6.6-2.5,32.1-10.9,43.8&#10;&#9;&#9;c-9.5,13.3-74.9,28.3-77.6,28.9c-0.2,0-0.4,0-0.5-0.1c-0.2-0.1-0.3-0.3-0.3-0.5L62,335.5c-0.1-0.3,0.1-0.6,0.4-0.8l44.1-20.9&#10;&#9;&#9;l-1.2-84.9c0-0.2,0.1-0.4,0.2-0.5c0.1-0.1,0.3-0.2,0.5-0.2l65.9,3c0.2,0,0.4,0.1,0.5,0.3c1.9,2.6,47.2,63.9,47.2,82.4&#10;&#9;&#9;c0,18.2,3,67.7,3,68.2c0,0.2,0,0.4-0.2,0.5c-0.1,0.1-0.3,0.2-0.5,0.2L198.1,384L198.1,384z M155.1,283.6c0.2,0,0.4,0.1,0.5,0.2&#10;&#9;&#9;l31.1,31.2c0.1,0.1,0.2,0.2,0.2,0.4l11.9,67.2l22.4-1.2c-0.4-6.1-3-50.4-3-67.5c0-17.4-43.4-76.8-46.7-81.3l-64.8-2.9l1.2,84.6&#10;&#9;&#9;c0,0.3-0.2,0.5-0.4,0.6l-44,20.9l4.1,21.3c7.2-1.7,67.4-16.1,76.1-28.2c9.2-12.9,10.7-44.3,10.7-44.6c0-0.3,0.2-0.5,0.4-0.6&#10;&#9;&#9;C154.9,283.6,155,283.5,155.1,283.6L155.1,283.6z"/>
	<path class="st1_bitcoin-26" d="M53.5,343.3l-15.6,6.6c0,0,15.6,44.3,24,35.3c2.3-2.5-4.3-28-4.3-28L53.5,343.3z"/>
	<path class="st1_bitcoin-26" d="M59.4,387.1c-0.3,0-0.6,0-0.8-0.1c-9-1.9-20.9-35.4-21.4-36.9c-0.1-0.3,0-0.7,0.4-0.9l15.6-6.6&#10;&#9;&#9;c0.2-0.1,0.4-0.1,0.6,0c0.2,0.1,0.3,0.2,0.4,0.4l4.2,13.9c1.6,6.1,6.5,26.1,4.1,28.7C61.7,386.6,60.6,387.1,59.4,387.1z&#10;&#9;&#9; M38.7,350.3c3.5,9.9,13.5,34,20.1,35.4c1,0.2,1.9-0.2,2.6-0.9c1.3-1.4-1.2-15-4.5-27.4L53,344.2L38.7,350.3z"/>
	<path class="st1_bitcoin-26" d="M201.6,393.3c0,0-0.4,15.6,1,15.8s45.7-5.7,42.3-9.1s-24.5-8.2-24.5-8.2L201.6,393.3z"/>
	<path class="st1_bitcoin-26" d="M202.5,409.9L202.5,409.9c-0.6-0.1-2-0.4-1.6-16.5c0-0.4,0.3-0.6,0.6-0.7l18.8-1.5c0.1,0,0.1,0,0.2,0&#10;&#9;&#9;c0.9,0.2,21.4,4.9,24.8,8.4c0.4,0.4,0.5,1,0.2,1.4C243.4,405.2,203.4,409.9,202.5,409.9z M203,408.6L203,408.6z M202.3,394&#10;&#9;&#9;c-0.2,6.4,0,13.2,0.6,14.5c3.7,0,39.1-5.2,41.4-8c-2.9-2.6-18.1-6.6-24-7.9L202.3,394z"/>
</g>
<g id="Character_body_front_bitcoin-26">
	<path class="st2_bitcoin-26 targetColor" d="M186.5,141c0,0-3.7,42.3,1.3,80l-27.4,7.8c0,0,11.3-28,8.5-40.2S186.5,141,186.5,141z" style="fill: rgb(187, 104, 253);"/>
	<path class="st2_bitcoin-26 targetColor" d="M101.6,237.3l1.7-41.9c0,0-0.7-51.7,18.3-60.9s57-5.3,64.3,5.2s-10.1,97.6-10.1,97.6L101.6,237.3z" style="fill: rgb(187, 104, 253);"/>
	<path class="st0_bitcoin-26" d="M184.6,95c0-0.2,0.1-0.5,0.1-0.8c0.6-4.8-0.2-9.7-2.3-14.1c-2.9,2.9-7.4,3.8-11.5,3.8s-8.3-0.7-12.4-0.4&#10;&#9;&#9;s-8.5,2-10.6,5.6c0.2-0.3-2.5-0.4-2.8-0.4c-1.4,0.5-2.5,1.5-3.2,2.8c-0.8,1.6-1.3,3.4-1.5,5.2c-0.9,7.6,0.1,15.4,2.9,22.6&#10;&#9;&#9;c1,2.9,2.7,5.6,4.9,7.8c5.2,5,12.5,2.3,18.4-0.3c5.7-2.4,11.4-6.6,13.2-12.8S183.8,101.3,184.6,95z"/>
	<path class="st1_bitcoin-26" d="M155.4,130.5c-2.9,0.1-5.7-1-7.7-3c-2.2-2.3-3.9-5-5-8c-2.9-7.3-3.9-15.1-2.9-22.9c0.1-1.9,0.7-3.7,1.6-5.4&#10;&#9;&#9;c0.8-1.5,2.1-2.6,3.6-3.1c0.9-0.1,1.8,0,2.7,0.1c2.1-3,6-5,10.8-5.3c2.5-0.1,5-0.1,7.5,0.1c1.6,0.1,3.3,0.2,4.9,0.2l0,0&#10;&#9;&#9;c4.9,0,8.6-1.2,11-3.6c0.2-0.2,0.4-0.2,0.6-0.2c0.2,0,0.4,0.2,0.5,0.4c2.2,4.5,3,9.5,2.4,14.5l-0.1,0.8l0,0&#10;&#9;&#9;c-0.8,5.2-2,10.4-3.7,15.4c-0.4,1.2-0.7,2.5-1.1,3.7c-2.2,7.4-9.5,11.5-13.6,13.3C163.8,128.7,159.6,130.5,155.4,130.5z&#10;&#9;&#9; M145.4,89.4h-0.3c-1.2,0.5-2.1,1.3-2.7,2.4c-0.8,1.5-1.2,3.2-1.4,4.9c-0.9,7.5,0.1,15.2,2.9,22.2c1,2.8,2.6,5.4,4.7,7.5&#10;&#9;&#9;c4.8,4.5,11.3,2.3,17.6-0.4c3.9-1.7,10.8-5.5,12.8-12.4c0.4-1.2,0.7-2.4,1.1-3.7c1.6-4.9,2.9-10,3.6-15.1l0.1-0.8&#10;&#9;&#9;c0.5-4.4-0.1-8.8-1.8-12.8c-2.6,2.2-6.4,3.3-11.3,3.3l0,0c-1.7,0-3.4-0.1-5-0.2c-2.4-0.2-4.8-0.3-7.3-0.1c-2.2,0.2-7.5,1.1-10,5.2&#10;&#9;&#9;c-0.2,0.3-0.6,0.5-1,0.3c0,0,0,0,0,0c-0.1,0-0.1-0.1-0.2-0.1C146.8,89.5,146.1,89.4,145.4,89.4L145.4,89.4z M184.6,95L184.6,95z"/>
	<path class="st0_bitcoin-26" d="M167.5,128.8l-1.3,12.7c0,0-3,6.7-10.8,3.4c-4.6-2-7.6-6.4-7.9-11.3l2.5-22.7c0,0,6.6-2.2,7.1-15.6&#10;&#9;&#9;c0,0,7.8,0,20.2,0.6c0,0,1.7,20.9-0.4,27S167.5,128.8,167.5,128.8z"/>
	<path class="st1_bitcoin-26" d="M159.5,146.5c-1.5,0-3-0.4-4.4-1c-4.8-2.1-8-6.7-8.4-12l2.5-22.8c0-0.3,0.2-0.5,0.5-0.6c0.1,0,6.1-2.3,6.6-15&#10;&#9;&#9;c0-0.4,0.3-0.7,0.7-0.7l0,0c0.1,0,8,0,20.2,0.6c0.4,0,0.7,0.3,0.7,0.7c0.1,0.8,1.7,21.1-0.4,27.3c-1.8,5.4-7.5,6.3-9.4,6.5l-1.2,12&#10;&#9;&#9;c0,0.1,0,0.2-0.1,0.2C166.9,141.9,164.7,146.5,159.5,146.5z M150.6,111.4l-2.4,22.2c0.3,4.7,3.2,8.8,7.5,10.6&#10;&#9;&#9;c6.6,2.9,9.4-2.1,9.8-2.9l1.3-12.5c0-0.4,0.4-0.7,0.7-0.6c0.3,0,6.8,0,8.7-5.5c1.8-5.3,0.6-22.6,0.4-26.1&#10;&#9;&#9;c-9.8-0.4-16.7-0.5-18.9-0.5C157.1,107.3,152.2,110.6,150.6,111.4z M166.2,141.5L166.2,141.5z"/>
	<path class="st0_bitcoin-26" d="M154.8,111.3c-0.1-1.2-0.5-2.3-1.3-3.2c-0.8-0.8-1.6-1.4-2.6-1.9c-0.5-0.3-1.1-0.5-1.7-0.6&#10;&#9;&#9;c-0.4,0-0.8,0.1-1.2,0.2c-1,0.3-1.8,0.9-2.3,1.7c-0.4,0.7-0.5,1.5-0.5,2.3c0,0.9,0,1.7,0.2,2.6c0.8,3.5,4.4,5.7,7.9,4.9&#10;&#9;&#9;c0,0,0.1,0,0.1,0"/>
	<path class="st1_bitcoin-26" d="M151.8,118.2c-3.4,0-6.3-2.3-7.1-5.6c-0.2-0.9-0.3-1.8-0.2-2.8c0-0.9,0.2-1.8,0.6-2.7c0.6-1,1.6-1.7,2.7-2&#10;&#9;&#9;c0.5-0.2,1-0.3,1.5-0.3c0.7,0.1,1.4,0.3,2,0.7c1,0.5,2,1.2,2.8,2.1c0.9,1,1.4,2.3,1.5,3.6c0,0.4-0.3,0.7-0.7,0.8&#10;&#9;&#9;c-0.4,0-0.7-0.3-0.8-0.7c-0.1-1-0.5-2-1.1-2.8c-0.7-0.7-1.5-1.3-2.4-1.8c-0.4-0.3-0.9-0.4-1.4-0.5c-0.3,0-0.6,0.1-0.9,0.2&#10;&#9;&#9;c-0.8,0.2-1.5,0.7-1.9,1.4c-0.3,0.6-0.4,1.3-0.4,2c-0.1,0.8,0,1.6,0.2,2.4c0.7,3.1,3.9,5.1,7,4.3c0,0,0.1,0,0.1,0&#10;&#9;&#9;c0.4-0.1,0.8,0.1,0.9,0.5c0.1,0.4-0.1,0.8-0.5,0.9C153,118.1,152.4,118.2,151.8,118.2z"/>
	<path class="st1_bitcoin-26" d="M166.9,134.9c-2.7-0.7-5.1-2.3-6.9-4.4c-1.5-1.6-2.1-3.9-1.5-6.1c0,0,3.5,4.6,9,4.4L166.9,134.9z"/>
	<path class="st1_bitcoin-26" d="M166.9,135.6h-0.1c-2.9-0.8-5.4-2.4-7.3-4.6c-1.7-1.8-2.3-4.4-1.6-6.8c0.1-0.2,0.3-0.4,0.6-0.4&#10;&#9;&#9;c0.3,0,0.5,0.1,0.6,0.3c0,0,3.3,4.2,8.4,4.1c0.2,0,0.4,0.1,0.5,0.2c0.1,0.1,0.2,0.3,0.2,0.5l-0.6,6.1c0,0.2-0.1,0.4-0.3,0.5&#10;&#9;&#9;C167.2,135.6,167,135.6,166.9,135.6z M159,125.9c-0.1,1.5,0.5,3,1.5,4.1c1.6,1.8,3.6,3.2,5.8,4l0.4-4.5&#10;&#9;&#9;C163.8,129.3,161.1,128,159,125.9z"/>
	<path class="st1_bitcoin-26" d="M170.2,117.4c-1,0-1.9-0.2-2.8-0.6c-0.4-0.1-0.5-0.6-0.4-0.9s0.6-0.5,0.9-0.4c0.8,0.3,2.6,0.8,3.2,0.3&#10;&#9;&#9;c0.2-0.6-0.9-3.9-2.4-7.1c-0.2-0.3,0-0.8,0.3-0.9c0.3-0.2,0.8,0,0.9,0.3c0,0,0,0,0,0c1.7,3.4,3.4,7.7,2.1,8.8&#10;&#9;&#9;C171.5,117.3,170.9,117.5,170.2,117.4z"/>
	<path class="st1_bitcoin-26" d="M167.1,121.7c-1.2,0-2.4-0.3-3.4-1c-1.1-0.9-1.9-2.2-2-3.6c-0.1-0.4,0.2-0.7,0.6-0.8c0.4-0.1,0.7,0.2,0.8,0.6&#10;&#9;&#9;c0.1,1,0.6,2,1.4,2.6c1,0.6,2.2,0.9,3.4,0.7c0.4-0.1,0.7,0.2,0.8,0.5c0,0,0,0,0,0c0.1,0.4-0.2,0.7-0.6,0.8c0,0,0,0,0,0&#10;&#9;&#9;C167.7,121.7,167.4,121.7,167.1,121.7z"/>
	<path class="st1_bitcoin-26" d="M165.6,105.6c-0.2,0-0.4-0.1-0.5-0.2c-0.4-0.5-1-0.8-1.7-0.9c-0.9,0-1.8,0.4-2.4,1c-0.3,0.3-0.7,0.3-1,0&#10;&#9;&#9;c0,0,0,0,0,0c-0.3-0.3-0.2-0.7,0.1-1c1-0.8,2.2-1.3,3.4-1.3c1,0.1,2,0.6,2.6,1.4c0.3,0.3,0.2,0.7,0,1c0,0,0,0,0,0&#10;&#9;&#9;C165.9,105.6,165.7,105.7,165.6,105.6z"/>
	<path class="st1_bitcoin-26" d="M171.9,107c-0.1,0-0.2,0-0.3-0.1c-0.3-0.2-0.5-0.6-0.3-0.9c0.4-0.8,1.2-1.4,2.1-1.6c1.2,0,2.3,0.5,3,1.4&#10;&#9;&#9;c0.3,0.3,0.2,0.7,0,1c0,0,0,0,0,0c-0.3,0.3-0.7,0.3-1,0c0,0,0,0,0,0c-0.5-0.5-1.2-1.1-1.8-1c-0.4,0.1-0.8,0.4-1,0.8&#10;&#9;&#9;C172.3,106.9,172.1,107,171.9,107z"/>
	<polygon class="st0_bitcoin-26" points="158.8,154.8 151.9,159.1 155.9,166.5 144.4,215.4 155.9,228.5 165.9,210.8 161.1,165.6 164.7,158.9 &#9;&#10;&#9;&#9;"/>
	<path class="st2_bitcoin-26 targetColor" d="M114.4,141c0,0-19.1,26.9-22.2,54.4c-1.9,16.4,6,22.8,6,22.8l24.9-11.7c0,0-7.2-12.6,9.4-46L114.4,141z" style="fill: rgb(187, 104, 253);"/>
	<path class="st0_bitcoin-26" d="M98.3,218.1l27.8,38.3c0,0-3.1,10.4-1.1,11.6s12.6,5.6,14.5,3c1.2-1.9,1.8-4.1,1.6-6.3h2.8&#10;&#9;&#9;c0,0,1.4-4.4-0.5-7.3s-23.9-51-23.9-51"/>
	<path class="st1_bitcoin-26" d="M137,272.5c-4.4,0-11.5-3.3-12.4-3.9c-2.2-1.3-0.3-8.6,0.7-12l-27.6-38c-0.2-0.3-0.2-0.8,0.2-1&#10;&#9;&#9;c0.3-0.2,0.8-0.2,1,0.2l27.8,38.3c0.1,0.2,0.2,0.4,0.1,0.6c-1.6,5.1-2.2,10.2-1.4,10.7c2.7,1.6,12.2,5.1,13.6,3.2&#10;&#9;&#9;c1.1-1.7,1.6-3.8,1.5-5.8c0-0.2,0-0.4,0.2-0.5c0.1-0.1,0.3-0.2,0.5-0.2h2.3c0.3-1.2,0.8-4.1-0.6-6.1c-2-2.9-23.1-49.1-24-51.1&#10;&#9;&#9;c-0.2-0.4-0.1-0.8,0.3-1c0,0,0,0,0.1,0c0.4-0.2,0.8,0,1,0.3c0,0,0,0,0,0c7.6,16.6,22.3,48.7,23.8,50.9c2.1,3.1,0.7,7.7,0.6,7.9&#10;&#9;&#9;c-0.1,0.3-0.4,0.5-0.7,0.5h-2.1c0,2.1-0.6,4.2-1.8,6C139.3,272.2,138.1,272.6,137,272.5z"/>
	<path class="st1_bitcoin-26" d="M121.4,206c-0.1,0-0.1,0-0.2,0c-0.4-0.1-0.6-0.5-0.5-0.8l12.5-53.2c0.1-0.4,0.5-0.6,0.8-0.5&#10;&#9;&#9;c0.4,0.1,0.6,0.5,0.5,0.8L122,205.5C122,205.8,121.7,206,121.4,206z"/>
	<path class="st1_bitcoin-26" d="M179.7,217.2h-0.1c-0.4-0.1-0.6-0.4-0.6-0.8c0,0,0,0,0,0c0.1-0.4,7.6-43.6,6.1-58.3c0-0.4,0.2-0.7,0.6-0.8&#10;&#9;&#9;c0.4,0,0.7,0.2,0.8,0.6c0,0,0,0,0,0c1.5,15.1-6.1,58.3-6.1,58.7C180.3,216.9,180,217.2,179.7,217.2z"/>
</g>
<g id="Cart_bitcoin-26">
	<path class="st1_bitcoin-26" d="M460.7,308.1c0,0-12.6-7-34.6-9l-4.3,23.5L460.7,308.1z"/>
	<path class="st1_bitcoin-26" d="M421.8,323.4c-0.2,0-0.3-0.1-0.5-0.2c-0.2-0.2-0.3-0.4-0.2-0.7l4.3-23.5c0.1-0.4,0.4-0.6,0.8-0.6&#10;&#9;&#9;c22,2,34.8,9,34.9,9c0.2,0.1,0.4,0.4,0.4,0.7c0,0.3-0.2,0.5-0.5,0.6l-38.9,14.5C422,323.3,421.9,323.4,421.8,323.4z M426.7,299.9&#10;&#9;&#9;l-3.9,21.7L459,308C455.2,306.2,443.8,301.5,426.7,299.9z"/>
	<path class="st1_bitcoin-26" d="M283.2,317.5l1,45.6c0.1,4.5,3.3,8.2,7.7,9l26.6,4.7c3.9,0.7,7.7-1.1,9.7-4.6l12.1-21.3l-7.1-3.2L323,366.4&#10;&#9;&#9;c-1.2,2.1-3.6,3.3-6,2.9l-20.4-3.5c-2.7-0.5-4.7-2.8-4.8-5.5l-1-35.9L283.2,317.5z"/>
	<path class="st1_bitcoin-26" d="M320.2,377.6c-0.6,0-1.2,0-1.7-0.1l-26.6-4.7c-4.7-0.8-8.2-4.9-8.3-9.6l-1-45.6c0-0.3,0.2-0.5,0.4-0.6&#10;&#9;&#9;c0.3-0.1,0.6-0.1,0.8,0.1l7.6,6.9c0.1,0.1,0.2,0.3,0.2,0.5l1,35.9c0.1,2.4,1.8,4.5,4.2,4.9l20.4,3.5c2.1,0.4,4.3-0.7,5.3-2.6&#10;&#9;&#9;l10.3-18.7c0.2-0.3,0.6-0.4,0.9-0.3l7.1,3.2c0.2,0.1,0.3,0.2,0.4,0.4c0.1,0.2,0,0.4-0.1,0.6l-12.1,21.3&#10;&#9;&#9;C327.1,375.7,323.7,377.6,320.2,377.6z M284,319.1l0.9,44c0.1,4.1,3.1,7.6,7.1,8.3l26.6,4.7c3.6,0.6,7.2-1,9-4.2l11.8-20.6&#10;&#9;&#9;l-5.8-2.7l-10,18.1c-1.3,2.4-4.1,3.7-6.8,3.3l-20.3-3.5c-3-0.5-5.3-3.1-5.4-6.2l-1-35.6L284,319.1z"/>
	<path class="st0_bitcoin-26" d="M297,304.6v16.9c0,6.4,18.2,11.5,40.7,11.5s40.7-5.2,40.7-11.5v-16.9H297z"/>
	<path class="st1_bitcoin-26" d="M337.7,333.7c-20.4,0-41.4-4.6-41.4-12.2v-16.9c0-0.4,0.3-0.7,0.7-0.7h0h81.4c0.4,0,0.7,0.3,0.7,0.7v0v16.9&#10;&#9;&#9;C379.1,329.1,358,333.7,337.7,333.7z M297.7,305.3v16.1c0,5.2,16.1,10.9,40,10.9s40-5.6,40-10.9v-16.1H297.7z"/>
	<ellipse class="st1_bitcoin-26" cx="337.7" cy="304.6" rx="40.7" ry="11.5"/>
	<path class="st1_bitcoin-26" d="M337.7,316.8c-20.4,0-41.4-4.6-41.4-12.2s21.1-12.2,41.4-12.2s41.4,4.6,41.4,12.2S358,316.8,337.7,316.8z&#10;&#9;&#9; M337.7,293.7c-23.9,0-40,5.6-40,10.9s16.1,10.9,40,10.9s40-5.6,40-10.9S361.6,293.7,337.7,293.7z"/>
	<path class="st0_bitcoin-26" d="M291.7,284.6v16.9c0,6.4,18.2,11.5,40.7,11.5s40.7-5.2,40.7-11.5v-16.9H291.7z"/>
	<path class="st1_bitcoin-26" d="M332.4,313.7c-20.4,0-41.4-4.6-41.4-12.2v-16.9c0-0.4,0.3-0.7,0.7-0.7h0h81.4c0.4,0,0.7,0.3,0.7,0.7v0v16.9&#10;&#9;&#9;C373.8,309.1,352.7,313.7,332.4,313.7z M292.4,285.3v16.1c0,5.2,16.1,10.9,40,10.9s40-5.6,40-10.9v-16.1H292.4z"/>
	<ellipse class="st1_bitcoin-26" cx="332.4" cy="284.6" rx="40.7" ry="11.5"/>
	<path class="st1_bitcoin-26" d="M332.4,296.9c-20.4,0-41.4-4.6-41.4-12.2s21.1-12.2,41.4-12.2s41.4,4.6,41.4,12.2S352.7,296.9,332.4,296.9z&#10;&#9;&#9; M332.4,273.8c-23.9,0-40,5.6-40,10.9s16.1,10.9,40,10.9s40-5.6,40-10.9S356.3,273.8,332.4,273.8L332.4,273.8z"/>
	<path class="st0_bitcoin-26" d="M298.2,260.3v16.9c0,6.4,18.2,11.5,40.7,11.5s40.7-5.2,40.7-11.5v-16.9H298.2z"/>
	<path class="st1_bitcoin-26" d="M338.9,289.4c-20.4,0-41.4-4.6-41.4-12.2v-16.9c0-0.4,0.3-0.7,0.7-0.7h0h81.5c0.4,0,0.7,0.3,0.7,0.7v0v16.9&#10;&#9;&#9;C380.4,284.8,359.3,289.4,338.9,289.4z M298.9,261v16.1c0,5.2,16.1,10.9,40,10.9s40-5.6,40-10.9V261L298.9,261z"/>
	<ellipse class="st1_bitcoin-26" cx="338.9" cy="260.3" rx="40.7" ry="11.5"/>
	<path class="st1_bitcoin-26" d="M338.9,272.5c-20.4,0-41.4-4.6-41.4-12.2s21.1-12.3,41.4-12.3s41.4,4.6,41.4,12.2&#10;&#9;&#9;C380.4,267.9,359.3,272.5,338.9,272.5z M338.9,249.4c-23.9,0-40,5.6-40,10.9c0,5.2,16.1,10.9,40,10.9s40-5.6,40-10.9&#10;&#9;&#9;S362.9,249.4,338.9,249.4z"/>
	<path class="st0_bitcoin-26" d="M291.7,235.9v16.9c0,6.4,18.2,11.6,40.7,11.6s40.7-5.2,40.7-11.6v-16.9H291.7z"/>
	<path class="st1_bitcoin-26" d="M332.4,265c-20.4,0-41.4-4.6-41.4-12.3v-16.9c0-0.4,0.3-0.7,0.7-0.7l0,0h81.4c0.4,0,0.7,0.3,0.7,0.7&#10;&#9;&#9;c0,0,0,0,0,0v16.9C373.8,260.4,352.7,265,332.4,265z M292.4,236.6v16.2c0,5.2,16.1,10.9,40,10.9s40-5.6,40-10.9v-16.2L292.4,236.6z&#10;&#9;&#9;"/>
	<ellipse class="st1_bitcoin-26" cx="332.4" cy="235.9" rx="40.7" ry="11.6"/>
	<path class="st1_bitcoin-26" d="M332.4,248.1c-20.4,0-41.4-4.6-41.4-12.2s21-12.2,41.4-12.2s41.4,4.6,41.4,12.2S352.7,248.1,332.4,248.1z&#10;&#9;&#9; M332.4,225c-23.9,0-40,5.6-40,10.9s16.1,10.9,40,10.9s40-5.6,40-10.9S356.3,225,332.4,225z"/>
	<path class="st0_bitcoin-26" d="M304.8,215.9v16.9c0,6.4,18.2,11.6,40.7,11.6s40.7-5.2,40.7-11.6v-16.9H304.8z"/>
	<path class="st1_bitcoin-26" d="M345.5,245c-20.4,0-41.4-4.6-41.4-12.2v-16.9c0-0.4,0.3-0.7,0.7-0.7l0,0h81.5c0.4,0,0.7,0.3,0.7,0.7&#10;&#9;&#9;c0,0,0,0,0,0v16.9C386.9,240.4,365.9,245,345.5,245z M305.5,216.6v16.1c0,5.2,16.1,10.9,40,10.9s40-5.6,40-10.9v-16.2L305.5,216.6z&#10;&#9;&#9;"/>
	<ellipse class="st1_bitcoin-26" cx="345.5" cy="215.9" rx="40.7" ry="11.6"/>
	<path class="st1_bitcoin-26" d="M345.5,228.1c-20.4,0-41.4-4.6-41.4-12.2s21.1-12.2,41.4-12.2s41.4,4.6,41.4,12.2S365.9,228.1,345.5,228.1z&#10;&#9;&#9; M345.5,205c-24,0-40,5.6-40,10.9s16.1,10.9,40,10.9s40-5.6,40-10.9S369.5,205,345.5,205L345.5,205z"/>
	<path class="st0_bitcoin-26" d="M295.9,195.9v16.9c0,6.4,18.2,11.6,40.7,11.6s40.7-5.2,40.7-11.6v-16.9H295.9z"/>
	<path class="st1_bitcoin-26" d="M336.6,225c-20.4,0-41.4-4.6-41.4-12.2v-16.9c0-0.4,0.3-0.7,0.7-0.7l0,0h81.4c0.4,0,0.7,0.3,0.7,0.7&#10;&#9;&#9;c0,0,0,0,0,0v16.9C378,220.4,356.9,225,336.6,225z M296.6,196.6v16.1c0,5.2,16.1,10.9,40,10.9s40-5.6,40-10.9v-16.1H296.6z"/>
	<ellipse class="st0_bitcoin-26" cx="336.6" cy="195.9" rx="40.7" ry="11.6"/>
	<path class="st1_bitcoin-26" d="M336.6,208.1c-20.4,0-41.4-4.6-41.4-12.2s21.1-12.2,41.4-12.2s41.4,4.6,41.4,12.2S356.9,208.1,336.6,208.1z&#10;&#9;&#9; M336.6,185c-23.9,0-40,5.6-40,10.9s16.1,10.9,40,10.9s40-5.6,40-10.9S360.5,185.1,336.6,185L336.6,185z"/>
	<path class="st3_bitcoin-26" d="M336.6,203.6c-16.9,0-34.9-2.7-34.9-7.7s18-7.7,34.9-7.7s34.9,2.7,34.9,7.7S353.5,203.6,336.6,203.6z&#10;&#9;&#9; M336.6,189.6c-20.7,0-33.5,3.7-33.5,6.3s12.7,6.3,33.5,6.3s33.4-3.7,33.4-6.3S357.3,189.6,336.6,189.6L336.6,189.6z"/>
	<path class="st0_bitcoin-26" d="M365.2,287.1l-1.1,16.8c-0.4,6.4,17.4,12.7,39.9,14.2s41-2.5,41.4-8.8l1.1-16.8L365.2,287.1z"/>
	<path class="st1_bitcoin-26" d="M413,319.1c-3,0-6-0.1-9.1-0.3c-10.9-0.7-21.1-2.6-28.7-5.3c-5.5-2-12.1-5.3-11.8-9.6l1.1-16.8&#10;&#9;&#9;c0-0.2,0.1-0.4,0.2-0.5c0.1-0.1,0.3-0.2,0.5-0.2l81.3,5.4c0.4,0,0.7,0.4,0.7,0.7c0,0,0,0,0,0l-1.1,16.8&#10;&#9;&#9;C445.6,315.8,430.1,319.1,413,319.1z M365.9,287.8l-1.1,16.1c-0.2,2.7,3.8,5.7,10.9,8.2c7.5,2.7,17.5,4.5,28.3,5.2&#10;&#9;&#9;c23.9,1.6,40.3-3,40.7-8.2l1.1-16.1L365.9,287.8z"/>
	
		<ellipse transform="matrix(6.982913e-02 -0.9976 0.9976 6.982913e-02 90.2511 676.7773)" class="st1_bitcoin-26" cx="408" cy="290" rx="11.6" ry="40.8"/>
	<path class="st1_bitcoin-26" d="M414.4,302.3c-3,0-6.2-0.1-9.4-0.3c-20.3-1.4-41-7.3-40.5-15s21.8-10.8,42.1-9.5c10.9,0.7,21.1,2.6,28.7,5.3&#10;&#9;&#9;c5.5,2,12.1,5.3,11.8,9.6l0,0c-0.3,4.4-7.2,6.8-13,8C427.7,301.8,421.1,302.4,414.4,302.3z M397.1,278.6c-18.7,0-30.9,4-31.2,8.5&#10;&#9;&#9;c-0.3,5.2,15.3,11.9,39.2,13.5c10.8,0.7,21,0.2,28.8-1.5c7.4-1.6,11.7-4,11.9-6.7l0,0c0.2-2.7-3.8-5.7-10.9-8.2&#10;&#9;&#9;c-7.5-2.7-17.5-4.5-28.3-5.2C403.3,278.7,400.1,278.6,397.1,278.6z"/>
	<path class="st0_bitcoin-26" d="M376.3,264.7l-1.1,16.8c-0.4,6.4,17.4,12.7,39.9,14.2s41-2.5,41.4-8.8l1.1-16.8L376.3,264.7z"/>
	<path class="st1_bitcoin-26" d="M424.1,296.7c-3,0-6-0.1-9.1-0.3c-10.9-0.7-21.1-2.6-28.7-5.3c-5.5-2-12.1-5.3-11.8-9.6l1.1-16.8&#10;&#9;&#9;c0-0.4,0.4-0.7,0.7-0.6l81.3,5.4c0.2,0,0.4,0.1,0.5,0.2c0.1,0.1,0.2,0.3,0.2,0.5l-1.1,16.8C456.7,293.4,441.2,296.7,424.1,296.7z&#10;&#9;&#9; M377,265.4l-1.1,16.1c-0.2,2.7,3.8,5.7,10.9,8.2c7.5,2.7,17.5,4.5,28.3,5.2c23.9,1.6,40.3-3,40.7-8.2l1.1-16.1L377,265.4z"/>
	
		<ellipse transform="matrix(6.609976e-02 -0.9978 0.9978 6.609976e-02 122.6173 665.6773)" class="st1_bitcoin-26" cx="416.9" cy="267.3" rx="11.5" ry="40.7"/>
	<path class="st1_bitcoin-26" d="M425.2,279.9c-3,0-6-0.1-9.1-0.3c-10.9-0.7-21.1-2.6-28.7-5.3c-5.6-2-12.1-5.3-11.8-9.6s7.2-6.8,13-8&#10;&#9;&#9;c7.9-1.7,18.2-2.2,29.1-1.5c20.3,1.3,41,7.3,40.5,15l0,0C457.9,276.6,442.3,279.9,425.2,279.9z M408.4,256.2&#10;&#9;&#9;c-6.5-0.1-13.1,0.5-19.5,1.8c-7.4,1.6-11.7,4-11.9,6.7s3.8,5.7,10.9,8.2c7.5,2.7,17.5,4.5,28.3,5.2c23.9,1.6,40.3-3,40.6-8.2l0,0&#10;&#9;&#9;c0.4-5.2-15.3-11.9-39.2-13.5C414.5,256.3,411.4,256.2,408.4,256.2z M457.6,270L457.6,270z"/>
	<path class="st0_bitcoin-26" d="M369.7,238.4l-1.1,16.8c-0.4,6.4,17.4,12.7,39.9,14.2s41-2.5,41.4-8.8l1.1-16.8L369.7,238.4z"/>
	<path class="st1_bitcoin-26" d="M417.5,270.5c-3,0-6-0.1-9.1-0.3c-10.9-0.7-21.1-2.6-28.7-5.3c-5.6-2-12.1-5.3-11.8-9.6l1.1-16.8&#10;&#9;&#9;c0-0.2,0.1-0.4,0.2-0.5c0.1-0.1,0.3-0.2,0.5-0.2l81.3,5.4c0.2,0,0.4,0.1,0.5,0.2c0.1,0.1,0.2,0.3,0.2,0.5l-1.1,16.8&#10;&#9;&#9;C450.1,267.2,434.6,270.5,417.5,270.5z M370.4,239.2l-1.1,16.1c-0.2,2.7,3.8,5.7,10.9,8.2c7.5,2.7,17.5,4.5,28.3,5.2&#10;&#9;&#9;c23.9,1.6,40.3-3,40.6-8.2l1.1-16.1L370.4,239.2z"/>
	
		<ellipse transform="matrix(6.609976e-02 -0.9978 0.9978 6.609976e-02 142.6175 634.5671)" class="st0_bitcoin-26" cx="410.3" cy="241.1" rx="11.5" ry="40.7"/>
	<path class="st1_bitcoin-26" d="M418.6,253.6c-3,0-6-0.1-9.1-0.3c-20.3-1.4-41-7.3-40.5-15s21.8-10.8,42.1-9.5s41,7.3,40.5,15l0,0&#10;&#9;&#9;C451.2,250.4,435.7,253.6,418.6,253.6z M401.6,230c-18.7,0-30.9,4-31.2,8.5c-0.3,5.2,15.3,11.9,39.2,13.5s40.3-2.9,40.6-8.2l0,0&#10;&#9;&#9;c0.4-5.2-15.3-11.9-39.2-13.5C407.8,230.1,404.6,230,401.6,230L401.6,230z M451,243.8L451,243.8z"/>
	<path class="st3_bitcoin-26" d="M420.4,249.2c-3.4,0-7-0.1-10.6-0.4c-16.9-1.1-34.6-5-34.3-10c0.2-2.3,3.8-4,10.9-4.9&#10;&#9;&#9;c8.1-0.9,16.3-1.1,24.4-0.4c16.9,1.1,34.6,5,34.3,10c-0.1,2.3-3.8,4-10.9,4.9C429.6,248.9,425,249.2,420.4,249.2z M400.2,234.5&#10;&#9;&#9;c-4.5,0-9.1,0.2-13.6,0.8c-7,1-9.6,2.6-9.7,3.6c-0.2,2.6,12.3,7.1,33,8.5c8,0.6,16.1,0.5,24-0.4c7-1,9.6-2.6,9.7-3.6&#10;&#9;&#9;c0.2-2.6-12.3-7.1-33-8.5C407.1,234.6,403.6,234.5,400.2,234.5z"/>
	<circle class="st1_bitcoin-26" cx="317.2" cy="253.5" r="43.5"/>
	<path class="st1_bitcoin-26" d="M317.2,297.7c-24.4,0-44.2-19.8-44.2-44.2c0-24.4,19.8-44.2,44.2-44.2c23.4,0,42.7,18.3,44.1,41.6l0,0&#10;&#9;&#9;c1.4,24.4-17.2,45.3-41.5,46.7C318.9,297.7,318.1,297.7,317.2,297.7z M317.2,210.7c-0.8,0-1.7,0-2.5,0.1&#10;&#9;&#9;c-23.6,1.4-41.7,21.6-40.4,45.3c1.4,23.6,21.6,41.7,45.3,40.4c23.6-1.4,41.7-21.6,40.4-45.3C358.7,228.5,339.9,210.8,317.2,210.7z"/>
	<circle class="st0_bitcoin-26" cx="310.5" cy="253.9" r="43.5"/>
	<path class="st1_bitcoin-26" d="M310.5,298.1c-24.4,0-44.2-19.9-44.2-44.3c0-24.4,19.9-44.2,44.3-44.2c23.4,0,42.7,18.3,44.1,41.7l0,0&#10;&#9;&#9;c1.4,24.4-17.2,45.3-41.6,46.8C312.2,298.1,311.3,298.1,310.5,298.1z M310.6,211.1c-0.9,0-1.7,0-2.6,0.1&#10;&#9;&#9;c-23.6,1.4-41.6,21.6-40.2,45.2s21.6,41.6,45.2,40.2c23.6-1.4,41.6-21.6,40.2-45.2l0,0C351.9,228.8,333.2,211.2,310.6,211.1z"/>
	<path class="st3_bitcoin-26" d="M310.5,288.1c-18.9,0.1-34.3-15.2-34.4-34.1c-0.1-18.2,14.2-33.3,32.4-34.3c18.9-1.1,35.1,13.3,36.2,32.2&#10;&#9;&#9;c1.1,18.9-13.3,35-32.2,36.2C311.8,288.1,311.1,288.1,310.5,288.1z M310.6,221.1c-0.6,0-1.3,0-2,0.1c-18.2,1-32.2,16.6-31.2,34.8&#10;&#9;&#9;s16.6,32.2,34.8,31.2c18.2-1,32.2-16.6,31.2-34.8C342.4,234.8,328,221.2,310.6,221.1z"/>
	<path class="st2_bitcoin-26 targetColor" d="M313.1,228.9c0,0.3,0.1,0.7,0.1,1c0.1,2,0.2,4,0.4,6c0,0.4,0.1,0.5,0.5,0.5c2.1,0,4.2,0.4,6.2,1.1&#10;&#9;&#9;c2.9,0.9,4.9,3.6,5,6.6c0.2,1.6-0.1,3.3-0.9,4.7c-0.5,0.8-1.1,1.5-1.9,2.1l-0.8,0.5c0.5,0.1,0.9,0.2,1.4,0.4c2,0.4,3.7,1.7,4.7,3.5&#10;&#9;&#9;c0.4,0.9,0.7,1.8,0.9,2.8c0.3,1.8,0.2,3.7-0.4,5.4c-0.7,2.5-2.6,4.5-5,5.5c-2.2,0.9-4.6,1.5-7,1.8c-0.9,0.1-0.7,0.1-0.7,0.8&#10;&#9;&#9;c0.1,2.1,0.2,4.2,0.4,6.3v0.5l-4.6,0.3l-0.4-7.4l-3.6,0.2l0.4,7.4l-4.6,0.3l-0.5-7.6l-9.2,0.5l0.6-5.5l0.5-0.1&#10;&#9;&#9;c0.9,0,1.9-0.1,2.8-0.2c0.9,0,1.6-0.7,1.6-1.6c0-0.1,0-0.1,0-0.2c0-0.1,0-0.2,0-0.3l-1.1-19.4c0.1-1.3-0.9-2.4-2.2-2.4&#10;&#9;&#9;c-0.1,0-0.3,0-0.4,0c-1.1,0-2.3,0.1-3.5,0.2l-0.3-4.9l9.2-0.5l-0.4-7.5l4.5-0.3c0,0.2,0.1,0.4,0.1,0.6c0.1,2.1,0.2,4.1,0.4,6.2v0.5&#10;&#9;&#9;l3.6-0.2l-0.4-7.3L313.1,228.9z M307.2,265.8c0.1,0,0.2,0,0.3,0c1.8-0.1,3.7-0.2,5.5-0.5c1.6-0.2,3.2-0.7,4.6-1.5&#10;&#9;&#9;c2-1.1,2.7-3.6,1.6-5.6c-0.7-1.2-1.9-2-3.3-2.3c-2-0.5-4.2-0.6-6.2-0.4l-3.1,0.2L307.2,265.8z M306.3,251.3c1.7-0.2,3.3-0.2,5-0.5&#10;&#9;&#9;c1.2-0.2,2.3-0.6,3.3-1.1c1.9-0.9,2.7-3.3,1.8-5.2c-0.2-0.5-0.6-0.9-1-1.3c-1-0.7-2.1-1.2-3.4-1.2c-1.9-0.2-3.8-0.1-5.7,0.1&#10;&#9;&#9;c-0.4,0-0.5,0.1-0.5,0.5c0.2,2.7,0.3,5.4,0.5,8.2C306.3,250.9,306.3,251,306.3,251.3L306.3,251.3z" style="fill: rgb(187, 104, 253);"/>
	<circle class="st1_bitcoin-26" cx="400.5" cy="291.1" r="43.5"/>
	<path class="st1_bitcoin-26" d="M400.5,335.4c-24.4,0-44.2-19.8-44.2-44.2s19.8-44.2,44.2-44.2c24.4,0,44.2,19.8,44.2,44.2&#10;&#9;&#9;c0,4.5-0.7,8.9-2,13.2l0,0C436.9,322.8,419.8,335.3,400.5,335.4z M400.5,248.4c-23.7-0.1-42.9,19-43,42.7&#10;&#9;&#9;c-0.1,23.7,19,42.9,42.7,43c23.7,0.1,42.9-19,43-42.7c0.1-18.7-12-35.3-29.9-41C409.2,249,404.9,248.3,400.5,248.4L400.5,248.4z&#10;&#9;&#9; M442,304.1L442,304.1z"/>
	<circle class="st0_bitcoin-26" cx="394.1" cy="289.1" r="43.5"/>
	<path class="st1_bitcoin-26" d="M394.1,333.4c-24.4,0-44.2-19.8-44.2-44.3c0-24.4,19.8-44.2,44.3-44.2c24.4,0,44.2,19.8,44.2,44.3&#10;&#9;&#9;c0,4.5-0.7,8.9-2,13.2l0,0C430.5,320.8,413.4,333.4,394.1,333.4z M394.1,246.4c-23.6,0-42.8,19.1-42.8,42.8&#10;&#9;&#9;c0,23.6,19.1,42.8,42.8,42.8c18.7,0,35.3-12.1,40.9-30l0,0c7.1-22.6-5.5-46.6-28.1-53.6C402.7,247,398.4,246.4,394.1,246.4z&#10;&#9;&#9; M435.6,302.2L435.6,302.2z"/>
	<path class="st3_bitcoin-26" d="M394.1,323.4c-18.9,0-34.3-15.3-34.3-34.2s15.3-34.3,34.2-34.3c18.9,0,34.3,15.3,34.3,34.2&#10;&#9;&#9;c0,3.5-0.5,7-1.6,10.3l0,0C422.3,313.6,409.1,323.3,394.1,323.4z M394.1,256.3c-18.2,0-33,14.7-33.1,32.9c0,18.2,14.7,33,32.9,33.1&#10;&#9;&#9;c18.2,0,33-14.7,33.1-32.9c0-14.4-9.3-27.2-23.1-31.5C400.7,256.8,397.4,256.3,394.1,256.3L394.1,256.3z"/>
	<path class="st2_bitcoin-26 targetColor" d="M405.4,266.7c-0.1,0.3-0.2,0.6-0.3,1c-0.6,1.9-1.2,3.9-1.8,5.8c-0.1,0.3,0,0.5,0.3,0.6c2,0.8,3.8,1.9,5.4,3.2&#10;&#9;&#9;c2.4,1.9,3.3,5,2.3,7.9c-0.4,1.6-1.2,3.1-2.5,4.1c-0.7,0.6-1.6,1-2.5,1.3l-0.9,0.2c0.4,0.3,0.8,0.5,1.1,0.8&#10;&#9;&#9;c1.7,1.1,2.8,2.9,3.2,4.9c0.1,1,0,2-0.2,3c-0.4,1.8-1.1,3.5-2.2,4.9c-1.6,2.1-4,3.3-6.6,3.4c-2.4,0.1-4.8-0.2-7.1-0.8&#10;&#9;&#9;c-0.9-0.2-0.7-0.2-0.9,0.5c-0.6,2-1.3,4-1.9,6l-0.2,0.5l-4.4-1.4l2.2-7.1l-3.4-1.1l-2.2,7.1l-4.4-1.4l2.3-7.2l-8.8-2.8l2.5-4.9&#10;&#9;&#9;l0.5,0.1l2.7,0.8c0.8,0.3,1.8-0.1,2.1-0.9c0-0.1,0-0.1,0.1-0.2c0-0.1,0.1-0.2,0.1-0.3c2-6.2,3.9-12.4,5.8-18.6&#10;&#9;&#9;c0.5-1.2-0.1-2.5-1.2-3c-0.1-0.1-0.3-0.1-0.4-0.1c-1.1-0.4-2.2-0.7-3.3-1l1.5-4.7l8.8,2.7l2.2-7.2l4.3,1.4c0,0.2-0.1,0.4-0.1,0.6&#10;&#9;&#9;c-0.6,2-1.2,4-1.9,5.9l-0.2,0.5l3.5,1.1l2.2-7L405.4,266.7z M386.8,299.1c0.1,0,0.2,0.1,0.2,0.1c1.8,0.5,3.5,1.1,5.3,1.5&#10;&#9;&#9;c1.6,0.4,3.2,0.5,4.9,0.2c2.2-0.3,3.8-2.4,3.5-4.6c-0.3-1.4-1.1-2.6-2.2-3.3c-1.7-1.2-3.7-2.1-5.7-2.6l-2.9-0.9L386.8,299.1z&#10;&#9;&#9; M391.1,285.2c1.6,0.4,3.2,1,4.8,1.3c1.2,0.2,2.3,0.3,3.5,0.2c2.1-0.2,3.7-2.1,3.5-4.2c-0.1-0.5-0.2-1.1-0.5-1.5&#10;&#9;&#9;c-0.7-1-1.6-1.9-2.7-2.4c-1.7-0.8-3.5-1.5-5.4-2c-0.4-0.1-0.5,0-0.6,0.3c-0.8,2.6-1.6,5.2-2.4,7.8&#10;&#9;&#9;C391.2,284.8,391.2,285,391.1,285.2L391.1,285.2z" style="fill: rgb(187, 104, 253);"/>
	<path class="st0_bitcoin-26" d="M412.4,402.1L198.9,265.5c-1.7-1.3-1.9-3.7-0.6-5.4l0,0c1.3-1.7,3.7-1.9,5.3-0.7c0,0,0,0,0,0l213.5,136.6&#10;&#9;&#9;c1.7,1.3,1.9,3.7,0.6,5.4l0,0C416.5,403.1,414.1,403.4,412.4,402.1C412.4,402.1,412.4,402.1,412.4,402.1z"/>
	<path class="st1_bitcoin-26" d="M414.7,403.7c-1,0-2-0.3-2.8-0.9L198.5,266.1c-2-1.5-2.4-4.4-0.9-6.3c0.7-1,1.9-1.6,3.1-1.8&#10;&#9;&#9;c1.2-0.1,2.4,0.2,3.3,0.9l213.5,136.6c2,1.5,2.4,4.4,0.9,6.3c-0.7,1-1.9,1.6-3.1,1.8C415.1,403.7,414.9,403.7,414.7,403.7z&#10;&#9;&#9; M201.2,259.4h-0.4c-0.8,0.1-1.6,0.5-2.1,1.2c-1.1,1.3-0.8,3.3,0.5,4.4l213.5,136.6l0,0c0.6,0.5,1.5,0.7,2.3,0.6&#10;&#9;&#9;c0.8-0.1,1.6-0.5,2.1-1.2c0.5-0.6,0.7-1.5,0.6-2.3c-0.1-0.8-0.5-1.6-1.2-2.1L203.2,260.1C202.6,259.6,201.9,259.4,201.2,259.4z"/>
	<path class="st0_bitcoin-26" d="M253.2,319.4l1,45.6c0.1,4.5,3.3,8.2,7.7,9l26.6,4.7c3.9,0.7,7.7-1.1,9.7-4.6l12.1-21.3l-7.1-3.2L293,368.2&#10;&#9;&#9;c-1.2,2.2-3.6,3.3-6,2.9l-20.3-3.5c-2.7-0.5-4.7-2.8-4.8-5.5l-1-35.9L253.2,319.4z"/>
	<path class="st1_bitcoin-26" d="M290.1,379.5c-0.6,0-1.2-0.1-1.7-0.1l-26.6-4.7c-4.7-0.8-8.2-4.9-8.3-9.7l-1-45.6c0-0.3,0.2-0.6,0.4-0.7&#10;&#9;&#9;c0.3-0.1,0.6-0.1,0.8,0.1l7.6,6.9c0.1,0.1,0.2,0.3,0.2,0.5l1,35.9c0.1,2.4,1.8,4.4,4.2,4.8l20.3,3.5c2.1,0.4,4.3-0.7,5.3-2.5&#10;&#9;&#9;l10.3-18.7c0.2-0.3,0.6-0.5,0.9-0.3l7.1,3.2c0.2,0.1,0.3,0.2,0.4,0.4c0.1,0.2,0,0.4-0.1,0.6l-12.1,21.3&#10;&#9;&#9;C297,377.5,293.7,379.4,290.1,379.5z M254,321l0.9,43.9c0.1,4.1,3.1,7.6,7.1,8.3l26.6,4.7c3.6,0.6,7.1-1.1,8.9-4.2l11.8-20.6&#10;&#9;&#9;l-5.8-2.6l-10,18.1c-1.3,2.4-4.1,3.7-6.8,3.3l-20.3-3.5c-3.1-0.5-5.3-3.1-5.4-6.2l-1-35.6L254,321z"/>
	<path class="st0_bitcoin-26" d="M291.2,338.8c0,0-12.7-34-10.8-48.6c0,0,17.8,21.4,80.8,31c54.8,8.3,96-9.6,96-9.6s-43.7,56.4-77.9,70.8&#10;&#9;&#9;L291.2,338.8z"/>
	<path class="st1_bitcoin-26" d="M379.3,383c-0.1,0-0.2,0-0.3-0.1l-88.1-43.5c-0.2-0.1-0.3-0.2-0.4-0.4c-0.5-1.4-12.7-34.3-10.9-49&#10;&#9;&#9;c0-0.3,0.2-0.5,0.5-0.6c0.3-0.1,0.6,0,0.8,0.2c0.2,0.2,18.5,21.3,80.4,30.7c54,8.2,95.2-9.4,95.6-9.5c0.3-0.1,0.7,0,0.9,0.2&#10;&#9;&#9;c0.2,0.3,0.2,0.6,0,0.9c-0.4,0.6-44.2,56.7-78.2,71C379.5,383,379.4,383,379.3,383z M291.8,338.2l87.5,43.2&#10;&#9;&#9;c29.9-12.8,67.4-58,75.6-68.3c-9.8,3.6-47.1,15.8-93.9,8.6c-54.7-8.3-75.3-25.3-80.1-30C280.2,306.1,290.7,335.1,291.8,338.2&#10;&#9;&#9;L291.8,338.2z"/>
	<circle class="st1_bitcoin-26" cx="411.3" cy="398.5" r="21.4"/>
	<path class="st1_bitcoin-26" d="M411.3,420.6c-12.2,0-22.1-9.9-22.1-22.1s9.9-22.1,22.1-22.1c12.2,0,22.1,9.9,22.1,22.1l0,0&#10;&#9;&#9;C433.4,410.7,423.5,420.6,411.3,420.6z M411.3,377.9c-11.4,0-20.7,9.3-20.7,20.7c0,11.4,9.3,20.7,20.7,20.7&#10;&#9;&#9;c11.4,0,20.7-9.3,20.7-20.7c0,0,0,0,0,0C432,387.1,422.7,377.9,411.3,377.9z"/>
	<circle class="st0_bitcoin-26" cx="411.3" cy="398.5" r="14"/>
	<path class="st1_bitcoin-26" d="M411.3,413.3c-8.1,0-14.7-6.6-14.7-14.7c0-8.1,6.6-14.7,14.7-14.7c8.1,0,14.7,6.6,14.7,14.7c0,0,0,0,0,0&#10;&#9;&#9;C426,406.7,419.4,413.2,411.3,413.3z M411.3,385.3c-7.3,0-13.3,5.9-13.3,13.3s5.9,13.3,13.3,13.3s13.3-5.9,13.3-13.3c0,0,0,0,0,0&#10;&#9;&#9;C424.6,391.2,418.6,385.3,411.3,385.3L411.3,385.3z"/>
	<path class="st0_bitcoin-26" d="M410,402.2L83.6,239.5c-1.8-1-2.5-3.3-1.5-5.2l0,0c1-1.8,3.3-2.5,5.2-1.5l326.4,162.7c1.8,1,2.5,3.3,1.5,5.2&#10;&#9;&#9;l0,0C414.1,402.6,411.8,403.2,410,402.2z"/>
	<path class="st1_bitcoin-26" d="M411.8,403.4c-0.8,0-1.5-0.2-2.2-0.6L83.3,240.1c-2.2-1.2-3-4-1.8-6.2c1.2-2.2,4-3,6.2-1.8L414,394.9&#10;&#9;&#9;c2.2,1.2,3,3.9,1.8,6.1C415,402.5,413.5,403.4,411.8,403.4L411.8,403.4z M85.5,233.1c-1.7,0-3.1,1.4-3.1,3.1c0,1.1,0.6,2.1,1.6,2.7&#10;&#9;&#9;l326.3,162.7l0,0c1.5,0.9,3.4,0.4,4.2-1.1c0.9-1.5,0.4-3.4-1.1-4.2c-0.1,0-0.1-0.1-0.2-0.1L87,233.4&#10;&#9;&#9;C86.5,233.2,86,233.1,85.5,233.1z"/>
	<path class="st0_bitcoin-26" d="M393.5,325.9c-23.6,0-47.1-3.8-69.5-11.1c-33-10.8-52.5-25.5-53.3-26.2c-2.1-1.7-2.4-4.8-0.7-6.9&#10;&#9;&#9;c1.6-2,4.6-2.4,6.7-0.9c0.4,0.3,19.4,14.5,50.8,24.8c41.6,13.6,86.5,14,128.4,1.2c2.6-0.8,5.3,0.7,6.1,3.3s-0.7,5.3-3.3,6.1&#10;&#9;&#9;C437.5,322.6,415.5,325.9,393.5,325.9z"/>
	<path class="st1_bitcoin-26" d="M393.5,326.6c-23.7,0-47.2-3.8-69.7-11.1c-33.1-10.9-52.7-25.6-53.5-26.3c-2.5-1.9-2.9-5.4-1-7.9&#10;&#9;&#9;c0.9-1.2,2.3-2,3.7-2.2c1.5-0.2,3,0.2,4.2,1.1c0.8,0.6,19.5,14.5,50.5,24.6c41.5,13.5,86.2,13.9,127.9,1.2c3-0.9,6.1,0.8,7,3.8&#10;&#9;&#9;c0.9,3-0.8,6.1-3.8,7C437.7,323.3,415.6,326.6,393.5,326.6z M273.7,280.6c-0.2,0-0.4,0-0.6,0c-2.3,0.3-3.9,2.4-3.6,4.7&#10;&#9;&#9;c0.1,1.1,0.7,2.1,1.6,2.8c0.8,0.6,20.1,15.2,53.1,26c22.3,7.3,45.7,11.1,69.2,11.1c22,0,43.9-3.3,64.9-9.7c2.2-0.7,3.5-3,2.8-5.2&#10;&#9;&#9;c-0.7-2.2-3-3.5-5.2-2.8c0,0,0,0,0,0c-42,12.8-87,12.4-128.8-1.2c-31.3-10.2-50.2-24.3-51-24.9&#10;&#9;&#9;C275.5,280.8,274.6,280.6,273.7,280.6z"/>
	<path class="st3_bitcoin-26" d="M402.5,336c-1.6,0-3.2-0.1-4.8-0.2c-0.4,0-0.7-0.4-0.7-0.7c0,0,0,0,0-0.1c0-0.4,0.4-0.7,0.8-0.6c0,0,0,0,0,0&#10;&#9;&#9;c9.1,0.6,18.2-0.4,26.9-3.2c0.4-0.1,0.8,0.1,0.9,0.5c0,0,0,0,0,0c0.1,0.4-0.1,0.8-0.4,0.9c0,0,0,0,0,0&#10;&#9;&#9;C417.7,334.8,410.1,336,402.5,336z"/>
</g>
</svg>