<svg version="1.1" id="Layer_1" xmlns="http://www.w3.org/2000/svg" xmlns:xlink="http://www.w3.org/1999/xlink" x="0px" y="0px" viewBox="0 0 500 500" style="width: 188px;" xml:space="preserve" data-imageid="bitcoin-1-45" imageName="Bitcoin 1" class="illustrations_image">
<style type="text/css">
	.st0_bitcoin-1-45{fill:#68E1FD;}
	.st1_bitcoin-1-45{fill:#093F68;}
	.st2_bitcoin-1-45{fill:#FFBC0E;}
	.st3_bitcoin-1-45{fill:#FFFFFF;}
	.st4_bitcoin-1-45{fill:#DFEAEF;}
</style>
<g id="stone-1_bitcoin-1-45">
	<polygon class="st0_bitcoin-1-45 targetColor" points="184.1,257.7 136.3,294.6 193,324.4 267.5,284.4 &#9;" style="fill: rgb(187, 104, 253);"/>
	<path class="st1_bitcoin-1-45" d="M193,326.4c-0.3,0-0.6-0.1-0.9-0.2l-56.7-29.8c-0.9-0.5-1.3-1.7-0.8-2.6c0.1-0.3,0.3-0.5,0.5-0.6l47.9-36.9&#10;&#9;&#9;c0.5-0.4,1.2-0.5,1.8-0.3l83.4,26.6c1,0.3,1.6,1.4,1.3,2.4c-0.2,0.5-0.5,0.9-0.9,1.1l-74.5,40C193.7,326.3,193.3,326.4,193,326.4z&#10;&#9;&#9; M139.9,294.3l53.1,27.9l69.5-37.4l-78-25L139.9,294.3z"/>
	<polygon class="st0_bitcoin-1-45 targetColor" points="136.3,294.6 100.1,376.6 182.1,376.6 193,324.4 &#9;" style="fill: rgb(187, 104, 253);"/>
	<path class="st1_bitcoin-1-45" d="M182.1,378.5h-82c-0.7,0-1.3-0.3-1.6-0.9c-0.4-0.5-0.4-1.2-0.2-1.8l36.2-82c0.4-1,1.6-1.4,2.6-1&#10;&#9;&#9;c0,0,0.1,0,0.1,0.1l56.7,29.8c0.8,0.4,1.2,1.3,1,2.1L184,377C183.8,377.9,183,378.5,182.1,378.5z M103.1,374.7h77.4l10.3-49.2&#10;&#9;&#9;l-53.6-28.1L103.1,374.7z"/>
	<polygon class="st0_bitcoin-1-45 targetColor" points="292.8,376.6 182.1,376.6 186.1,357.6 193,324.4 226.3,306.5 232.9,303 253.3,292 267.5,284.4 &#9;" style="fill: rgb(187, 104, 253);"/>
	<path class="st1_bitcoin-1-45" d="M292.8,378.5H182.1c-1.1,0-1.9-0.9-1.9-1.9c0-0.1,0-0.3,0-0.4l11-52.2c0.1-0.6,0.5-1,1-1.3l74.5-40&#10;&#9;&#9;c0.5-0.3,1.1-0.3,1.7-0.1c0.5,0.2,0.9,0.7,1.1,1.3l25.3,92.2c0.3,1.1-0.4,2.2-1.5,2.4C293.1,378.6,293,378.6,292.8,378.5&#10;&#9;&#9;L292.8,378.5z M184.5,374.7h105.8l-24-87.4l-71.5,38.5L184.5,374.7z"/>
	<path class="st1_bitcoin-1-45" d="M486.1,378.5L486.1,378.5c-11,0-461.6-0.1-472.3,0l0,0c-1.1,0-1.9-0.9-1.9-1.9s0.9-1.9,1.9-1.9&#10;&#9;&#9;c3.8,0,467.6,0,472.3,0c1.1,0,1.9,0.9,1.9,1.9S487.3,378.5,486.1,378.5L486.1,378.5z"/>
</g>
<g id="bitcoin-3_bitcoin-1-45">
	<circle class="st2_bitcoin-1-45" cx="375.1" cy="254.3" r="49.3"/>
	<path class="st1_bitcoin-1-45" d="M375.1,305.6c-28.3,0-51.2-23-51.2-51.3c0-28.3,23-51.2,51.3-51.2c8.5,0,16.8,2.1,24.3,6.2l0,0&#10;&#9;&#9;c24.9,13.5,34.1,44.7,20.6,69.6C411.1,295.3,393.8,305.5,375.1,305.6L375.1,305.6z M375.2,206.9c-4.6,0-9.2,0.7-13.6,2&#10;&#9;&#9;c-25.1,7.5-39.3,33.8-31.9,58.9s33.8,39.3,58.9,31.9c25.1-7.5,39.3-33.8,31.9-58.9c-3.6-12-11.8-22.1-22.8-28.1l0,0&#10;&#9;&#9;C390.8,208.9,383,206.9,375.2,206.9z"/>
	<path class="st3_bitcoin-1-45" d="M348.6,232.8l6.8,3.7c0,0,3.5-5.9,6.2-7.9c5.3-3.8,10.4-5,15.9,0.4c3.7,3.5,3.9,8.7,3.9,8.6s6.1-7.8,17.1-0.8&#10;&#9;&#9;c13.5,8.7,2.6,24.5,2.6,24.5l6.6,3.6c1.4,0.8,1.9,2.6,1.2,4l-0.4,0.8c-0.8,1.4-2.6,1.9-4,1.2l-6.9-3.8l-2.6,4.8l6.9,3.7&#10;&#9;&#9;c1.4,0.8,1.9,2.6,1.2,4l-0.4,0.8c-0.8,1.4-2.6,1.9-4,1.2l-7.2-3.9l-6.5,12l-6.6-5.2c0.7-1.3,1.3-2.6,2-3.7c1.2-2,0.6-3.3-1.4-4.4&#10;&#9;&#9;c-7.1-3.8-14.1-7.7-21.2-11.6l-0.9-0.5c-5.9-3.2-6.5-3.1-9.6,2.8c-0.2,0.4-0.5,0.9-0.8,1.4l-6.3-3.4l6.5-11.9l-7.1-3.9&#10;&#9;&#9;c-1.4-0.8-1.9-2.6-1.2-4l0.4-0.8c0.8-1.4,2.6-1.9,4-1.2l6.7,3.6l2.5-4.6l-6.6-3.6c-1.4-0.8-1.9-2.6-1.2-4l0.4-0.8&#10;&#9;&#9;C345.4,232.6,347.1,232.1,348.6,232.8z M375.7,261.1l11.9,6.4c2.4-4,4.7-8,5.5-12.6c0.6-3.5-0.4-6-2.8-7.3c-2.7-1.6-6.1-0.9-8,1.6&#10;&#9;&#9;C379.3,252.5,375.7,261.1,375.7,261.1z M368.6,257.1c2.2-3.4,4-7,4.5-11c0.4-2.3-0.7-4.7-2.8-5.8c-2.2-1.3-5-1-6.9,0.8&#10;&#9;&#9;c-3.1,2.6-4.8,6.1-6.6,9.7L368.6,257.1z"/>
	<path class="st1_bitcoin-1-45" d="M384.8,291.7c-0.4,0-0.8-0.1-1.2-0.4l-6.6-5.1c-0.7-0.6-0.9-1.6-0.5-2.5l0.7-1.2c0.5-0.9,0.9-1.7,1.4-2.6&#10;&#9;&#9;c0.3-0.5,0.4-0.9,0.3-1s-0.1-0.3-1-0.8c-5.1-2.8-10.2-5.6-15.3-8.4l-6.8-3.7c-1.3-0.7-3.7-2.1-4.4-1.9s-1.9,2.6-2.6,3.8l-0.8,1.4&#10;&#9;&#9;c-0.3,0.5-0.7,0.8-1.2,0.9c-0.5,0.1-1,0.1-1.5-0.1l-6.3-3.4c-0.9-0.5-1.3-1.7-0.8-2.6L344,254l-5.4-2.9c-1.1-0.6-2-1.7-2.4-2.9&#10;&#9;&#9;c-0.4-1.2-0.2-2.6,0.4-3.7l0.4-0.8c0.6-1.1,1.7-2,2.9-2.4c1.2-0.4,2.6-0.2,3.7,0.4l5,2.7l0.6-1.2l-4.9-2.6c-2.4-1.3-3.3-4.2-2-6.6&#10;&#9;&#9;c0,0,0,0,0,0l0.5-0.8c0.6-1.1,1.7-2,2.9-2.4c1.2-0.4,2.6-0.2,3.7,0.4l5.2,2.8c1.3-2,3.7-5.4,5.8-6.9c4.4-3.2,11-6.5,18.4,0.6&#10;&#9;&#9;c1.8,1.8,3.1,4,3.8,6.4c3.2-2,9-3.9,16.9,1.1c3.8,2.2,6.4,5.9,7.3,10.2c1.2,6.2-1.5,12.3-3.1,15.3l4.8,2.6c2.4,1.3,3.3,4.2,2,6.6&#10;&#9;&#9;c0,0,0,0,0,0l-0.4,0.8c-1.3,2.4-4.2,3.3-6.6,2c0,0,0,0,0,0l-5.2-2.8l-0.8,1.4l5.2,2.8c2.4,1.3,3.3,4.3,2,6.6l-0.4,0.8&#10;&#9;&#9;c-1.3,2.4-4.2,3.3-6.6,2c0,0,0,0,0,0l-5.5-3l-5.6,10.3c-0.3,0.5-0.7,0.9-1.3,1C385.1,291.8,385,291.8,384.8,291.7z M380.7,284.1&#10;&#9;&#9;l3.5,2.8l5.4-10c0.5-0.9,1.7-1.3,2.6-0.8c0,0,0,0,0,0l7.2,3.9c0.2,0.1,0.5,0.2,0.8,0.1c0.3-0.1,0.5-0.3,0.6-0.5l0.4-0.8&#10;&#9;&#9;c0.3-0.5,0.1-1.1-0.4-1.4c0,0,0,0,0,0l-6.9-3.8c-0.5-0.2-0.8-0.7-0.9-1.1c-0.1-0.5-0.1-1,0.1-1.5l2.6-4.8c0.5-0.9,1.7-1.3,2.6-0.8&#10;&#9;&#9;c0,0,0,0,0,0l6.9,3.8c0.5,0.3,1.1,0.1,1.4-0.4c0,0,0,0,0,0l0.4-0.8c0.1-0.2,0.2-0.5,0.1-0.8c-0.1-0.3-0.3-0.5-0.5-0.6l-6.6-3.6&#10;&#9;&#9;c-0.9-0.5-1.3-1.7-0.8-2.6c0-0.1,0.1-0.1,0.1-0.2c0-0.1,5-7.4,3.6-14.1c-0.7-3.2-2.8-6-5.6-7.7c-9.3-5.9-14.3,0.1-14.5,0.4&#10;&#9;&#9;c-0.5,0.6-1.4,0.9-2.1,0.6c-0.8-0.3-1.3-1-1.3-1.8c-0.2-2.7-1.4-5.3-3.3-7.2c-4.2-4.1-8-4.1-13.4-0.2c-2,1.4-4.8,5.8-5.7,7.3&#10;&#9;&#9;c-0.5,0.9-1.7,1.2-2.6,0.7l-6.8-3.7l0,0c-0.5-0.3-1.1-0.1-1.4,0.4c0,0,0,0,0,0l-0.5,0.8c-0.1,0.2-0.2,0.5-0.1,0.8&#10;&#9;&#9;c0.1,0.3,0.3,0.5,0.5,0.6l6.6,3.6c0.4,0.2,0.8,0.7,0.9,1.1c0.1,0.5,0.1,1-0.2,1.5l-2.5,4.7c-0.5,0.9-1.7,1.3-2.6,0.8l-6.7-3.6&#10;&#9;&#9;c-0.2-0.2-0.5-0.2-0.8-0.1c-0.3,0.1-0.5,0.3-0.6,0.5l-0.4,0.8c-0.1,0.2-0.1,0.5-0.1,0.8c0.1,0.3,0.3,0.5,0.5,0.6l7.1,3.9&#10;&#9;&#9;c0.5,0.2,0.8,0.7,0.9,1.2c0.2,0.5,0.1,1-0.1,1.5l-5.5,10.2l2.9,1.5c1.6-3,2.8-4.9,4.8-5.4s4.1,0.4,7.3,2.2l6.8,3.7&#10;&#9;&#9;c5.1,2.8,10.2,5.6,15.3,8.4c1.3,0.6,2.4,1.7,2.8,3.1c0.3,1.4,0.1,2.8-0.7,4C381.5,282.6,381.1,283.4,380.7,284.1L380.7,284.1z&#10;&#9;&#9; M387.6,269.4c-0.3,0-0.6-0.1-0.9-0.2l-11.9-6.4c-0.9-0.5-1.2-1.5-0.9-2.5c0.2-0.4,3.8-8.9,6.8-12.4c2.5-3.2,7-4.1,10.5-2&#10;&#9;&#9;c3.2,1.8,4.5,5.1,3.8,9.3c-0.9,5-3.3,9.3-5.7,13.3C388.9,269.1,388.2,269.4,387.6,269.4L387.6,269.4z M378.2,260.2l8.6,4.7&#10;&#9;&#9;c2-3.2,3.5-6.7,4.3-10.4c0.7-3.9-1.2-4.9-1.8-5.3c-1.9-1.1-4.3-0.7-5.6,1.1C381.9,252.5,379.5,257.3,378.2,260.2L378.2,260.2z&#10;&#9;&#9; M368.6,259.1c-0.3,0-0.6-0.1-0.9-0.2l-11.7-6.4c-0.9-0.5-1.3-1.6-0.8-2.5c1.7-3.5,3.6-7.4,7.1-10.4c2.5-2.3,6.2-2.7,9.1-1&#10;&#9;&#9;c2.8,1.5,4.3,4.6,3.7,7.8c-0.7,4.3-2.3,8.3-4.8,11.8C369.8,258.7,369.2,259.1,368.6,259.1L368.6,259.1z M359.4,250l8.5,4.6&#10;&#9;&#9;c1.7-2.6,2.8-5.6,3.3-8.7c0.3-1.6-0.4-3.2-1.9-3.9c-1.5-0.9-3.4-0.7-4.6,0.6C362.4,244.7,360.6,247.2,359.4,250z"/>
</g>
<g id="bitcoin-2_bitcoin-1-45">
	<circle class="st2_bitcoin-1-45" cx="270.6" cy="275.4" r="49.3"/>
	<path class="st1_bitcoin-1-45" d="M270.6,326.7c-28.3,0-51.3-23-51.2-51.3s23-51.3,51.3-51.2s51.3,23,51.2,51.3c0,4.8-0.7,9.6-2,14.2l0,0&#10;&#9;&#9;C313.5,311.6,293.4,326.6,270.6,326.7z M270.7,228c-26.2,0-47.4,21.2-47.4,47.3s21.2,47.4,47.3,47.4c26.2,0,47.4-21.2,47.4-47.3&#10;&#9;&#9;c0-21.1-13.9-39.6-34.2-45.5C279.6,228.7,275.1,228,270.7,228L270.7,228z M318,289.2L318,289.2z"/>
	<path class="st3_bitcoin-1-45" d="M286,244.9l-2.1,7.4c0,0,6.5,2.2,9.1,4.4c4.8,4.4,7,9.1,3,15.6c-2.7,4.4-7.6,5.6-7.6,5.7s9,4.3,4.4,16.5&#10;&#9;&#9;c-5.6,15.1-23.5,7.7-23.5,7.7l-2.1,7.2c-0.5,1.5-2.1,2.4-3.7,2l-0.9-0.2c-1.5-0.5-2.4-2.1-2-3.7l2.2-7.6l-5.2-1.5l-2.2,7.6&#10;&#9;&#9;c-0.5,1.6-2.1,2.5-3.6,2c0,0,0,0,0,0l-0.9-0.2c-1.5-0.5-2.4-2.1-2-3.7l2.3-7.9l-13.2-3.8l3.6-7.5c1.4,0.4,2.8,0.8,4.1,1.2&#10;&#9;&#9;c2.2,0.7,3.4-0.1,4-2.3c2.2-7.8,4.6-15.5,6.9-23.2c0.1-0.3,0.2-0.6,0.3-1c1.9-6.4,1.6-7-4.8-8.8l-1.6-0.4l2-6.9l13,3.8l2.2-7.8&#10;&#9;&#9;c0.5-1.5,2.1-2.4,3.7-2l0.9,0.2c1.5,0.5,2.4,2.1,2,3.7l-2.1,7.3l5,1.5l2.1-7.2c0.5-1.5,2.1-2.4,3.7-2l0.9,0.3&#10;&#9;&#9;C285.4,241.7,286.4,243.3,286,244.9z M264.1,277.4l-3.8,12.9c4.5,1.5,8.8,2.9,13.5,2.7c3.5-0.1,5.8-1.7,6.5-4.3&#10;&#9;&#9;c1-3-0.4-6.2-3.2-7.5C273.3,279.1,264.1,277.4,264.1,277.4L264.1,277.4z M266.5,269.6c3.8,1.4,7.7,2.4,11.7,2.1&#10;&#9;&#9;c2.4-0.1,4.5-1.7,5.1-4c0.8-2.4-0.1-5.1-2.2-6.5c-3.2-2.5-7-3.4-10.9-4.4L266.5,269.6z"/>
	<path class="st1_bitcoin-1-45" d="M264.3,313.5c-0.5,0-0.9-0.1-1.4-0.2l-0.9-0.2c-2.6-0.7-4.1-3.5-3.3-6.1c0,0,0,0,0,0l1.7-5.7l-1.5-0.4&#10;&#9;&#9;l-1.6,5.7c-0.8,2.6-3.5,4.1-6.1,3.3l-0.9-0.2c-2.6-0.7-4.1-3.5-3.3-6.1c0,0,0,0,0,0l1.7-6l-11.3-3.3c-1-0.3-1.6-1.4-1.3-2.4&#10;&#9;&#9;c0-0.1,0.1-0.2,0.1-0.3l3.6-7.5c0.4-0.8,1.4-1.2,2.3-1l1.3,0.4c1,0.3,1.9,0.5,2.8,0.9c0.3,0.1,0.7,0.2,1,0.1c0,0,0.3-0.2,0.6-1.1&#10;&#9;&#9;c1.7-5.7,3.4-11.5,5.1-17.2l2.1-7c0.4-1.4,1.2-4.1,0.9-4.7s-2.9-1.3-4.3-1.8l-1.6-0.4c-1-0.3-1.6-1.4-1.3-2.4c0,0,0,0,0,0l2-6.9&#10;&#9;&#9;c0.1-0.5,0.5-0.9,0.9-1.2c0.5-0.2,1-0.3,1.5-0.2l11.2,3.2l1.7-5.9c0.8-2.6,3.5-4.1,6.1-3.3l0.9,0.2c2.6,0.8,4.1,3.5,3.3,6.1&#10;&#9;&#9;l-1.6,5.5l1.3,0.4l1.5-5.4c0.8-2.6,3.5-4.1,6.1-3.3l0.9,0.3c2.6,0.8,4.1,3.5,3.3,6.1l-1.6,5.6c2.2,0.9,6,2.4,8,4.2&#10;&#9;&#9;c4,3.6,8.7,9.4,3.4,18.1c-1.4,2.1-3.3,3.9-5.5,5.1c2.7,2.7,5.8,8,2.5,16.8c-1.4,4.2-4.4,7.5-8.4,9.3c-5.8,2.5-12.3,1.1-15.6,0.2&#10;&#9;&#9;L269,310C268.4,312.1,266.5,313.5,264.3,313.5z M257.6,296.5c0.2,0,0.4,0,0.5,0.1l5.2,1.5c0.5,0.1,0.9,0.5,1.2,0.9&#10;&#9;&#9;c0.2,0.5,0.3,1,0.2,1.5l-2.2,7.6c-0.1,0.3,0,0.5,0.1,0.8c0.1,0.2,0.3,0.4,0.6,0.5l0.9,0.2c0.5,0.2,1.1-0.1,1.2-0.7c0,0,0,0,0,0&#10;&#9;&#9;l2.1-7.2c0.1-0.5,0.5-1,1-1.2c0.5-0.2,1.1-0.2,1.6,0c0.1,0,8.2,3.3,14.6,0.5c3-1.4,5.3-4,6.3-7.1c3.9-10.4-3.1-14-3.4-14.1&#10;&#9;&#9;c-0.7-0.4-1.2-1.2-1.1-2c0.1-0.8,0.7-1.5,1.5-1.7c2.6-0.8,4.9-2.5,6.4-4.8c3.1-5,2.4-8.7-2.6-13.2c-1.8-1.6-6.7-3.5-8.4-4&#10;&#9;&#9;c-1-0.3-1.5-1.4-1.2-2.4l2.1-7.4l0,0c0.1-0.3,0-0.5-0.1-0.8c-0.1-0.2-0.3-0.4-0.6-0.5l-0.9-0.3c-0.5-0.2-1.1,0.1-1.3,0.6&#10;&#9;&#9;c0,0,0,0,0,0l-2.1,7.2c-0.1,0.5-0.5,0.9-0.9,1.2c-0.4,0.3-1,0.3-1.5,0.2l-5-1.5c-0.5-0.1-0.9-0.5-1.2-0.9c-0.2-0.5-0.3-1-0.2-1.5&#10;&#9;&#9;l2.1-7.3c0.2-0.5-0.1-1.1-0.7-1.3c0,0,0,0,0,0l-0.9-0.2c-0.5-0.2-1.1,0.1-1.3,0.6c0,0,0,0,0,0l-2.2,7.8c-0.1,0.5-0.5,0.9-0.9,1.2&#10;&#9;&#9;c-0.5,0.2-1,0.3-1.5,0.2l-11.2-3.2l-0.9,3.1c3.3,0.9,5.3,1.7,6.3,3.5s0.5,4.1-0.6,7.6l-2.1,7c-1.7,5.7-3.4,11.4-5.1,17.1&#10;&#9;&#9;c-0.3,1.4-1.2,2.7-2.5,3.4c-1.3,0.6-2.7,0.6-4,0.1c-0.8-0.3-1.6-0.5-2.4-0.7l-1.9,4l10.9,3.2c0.5,0.1,0.9,0.5,1.2,0.9&#10;&#9;&#9;c0.3,0.4,0.3,1,0.2,1.5l-2.3,7.9c-0.1,0.3,0,0.5,0.1,0.8c0.1,0.2,0.3,0.4,0.6,0.5l0.9,0.2c0.5,0.2,1.1-0.1,1.3-0.7c0,0,0,0,0,0&#10;&#9;&#9;l2.2-7.5C256,297.1,256.7,296.6,257.6,296.5L257.6,296.5z M273,295c-4.7,0-9.1-1.4-13.2-2.8c-1-0.3-1.5-1.4-1.2-2.4l3.8-13&#10;&#9;&#9;c0.3-0.9,1.2-1.5,2.2-1.4c0.4,0.1,9.5,1.8,13.6,4c3.7,1.7,5.5,5.9,4.2,9.8c-1.1,3.5-4,5.5-8.3,5.6C273.6,295,273.3,295,273,295z&#10;&#9;&#9; M262.8,289.1c3.5,1.3,7.2,2,11,2c3.9-0.2,4.6-2.2,4.8-2.9c0.7-2.1-0.3-4.4-2.3-5.2c-2.6-1.4-8-2.7-10.8-3.3L262.8,289.1z&#10;&#9;&#9; M276.6,273.7c-3.7-0.1-7.3-0.9-10.8-2.3c-1-0.4-1.5-1.4-1.2-2.4l3.7-12.8c0.3-1,1.3-1.6,2.3-1.3c3.8,0.9,8,1.9,11.6,4.7&#10;&#9;&#9;c2.8,1.9,4,5.5,2.9,8.7c-0.9,3-3.6,5.2-6.8,5.3C277.8,273.6,277.1,273.7,276.6,273.7L276.6,273.7z M268.9,268.4&#10;&#9;&#9;c2.9,1.1,6.1,1.5,9.2,1.4c1.6,0,3-1.1,3.4-2.6c0.6-1.7-0.1-3.5-1.6-4.4c-2.5-1.8-5.4-3-8.4-3.6L268.9,268.4z"/>
</g>
<g id="bitcoin-1_bitcoin-1-45">
	<path class="st2_bitcoin-1-45" d="M266,369.5c-2.5,2.7-5.4,5.1-8.4,7.1h-54.7c-2.3-1.5-4.5-3.3-6.5-5.2c-4.2-4-7.7-8.6-10.2-13.8&#10;&#9;&#9;c-12.2-24.3-2.3-54,22-66.2c14.3-7.1,31.1-6.9,45.2,0.5c4,2.1,7.6,4.7,10.8,7.8C283.9,318.5,284.8,349.7,266,369.5&#10;&#9;&#9;C266,369.5,266,369.5,266,369.5z"/>
	<path class="st1_bitcoin-1-45" d="M257.6,378.5h-54.7c-0.4,0-0.8-0.1-1.1-0.3c-7.4-4.9-13.4-11.7-17.4-19.7c-6.1-12.3-7.1-26.6-2.6-39.7&#10;&#9;&#9;c2.4-6.9,6.2-13.2,11.2-18.4c15.8-16.7,40.8-20.8,61.2-10.1c4.1,2.2,7.9,4.9,11.3,8.1c20.6,19.4,21.5,51.8,2,72.4c0,0,0,0,0,0l0,0&#10;&#9;&#9;c-2.6,2.8-5.6,5.3-8.8,7.4C258.4,378.4,258,378.6,257.6,378.5z M203.4,374.7H257c2.8-1.9,5.3-4.1,7.6-6.5l0,0&#10;&#9;&#9;c18-19,17.2-48.9-1.8-66.9c0,0,0,0-0.1-0.1c-3.1-3-6.6-5.5-10.4-7.5c-18.8-9.9-41.9-6.1-56.6,9.3c-4.6,4.9-8.2,10.7-10.4,17&#10;&#9;&#9;c-4.2,12.1-3.3,25.3,2.4,36.7c2.5,5,5.8,9.5,9.8,13.3C199.4,371.7,201.4,373.3,203.4,374.7L203.4,374.7z M266,369.5L266,369.5z"/>
	<path class="st3_bitcoin-1-45" d="M258.5,329.2c-1.2-3.1-6-8.1-6-8.1l5.3-5.6c1.1-1.2,1.1-3.1-0.1-4.2l-0.7-0.6c-1.2-1.1-3-1-4.2,0.1l-5.2,5.5&#10;&#9;&#9;l-3.8-3.6l5.2-5.5c1.1-1.2,1.1-3-0.1-4.1l-0.6-0.6c-1.2-1.1-3.1-1.1-4.2,0.1l-5.6,5.9l-5.7-5.4l-4.2-4l-4.9,5.2&#10;&#9;&#9;c0.5,0.4,0.8,0.8,1.2,1.1s0.9,0.9,1.3,1.2c3.5,3.5,3.1,4.4-1.1,8.8l-0.7,0.7c-5.6,5.8-11.2,11.6-16.7,17.5c-1.6,1.6-3,1.8-4.6,0.2&#10;&#9;&#9;c-0.9-1-2-1.9-3.1-2.9c-2.2,1.7-4.3,3.2-6.7,5l9.9,9.4l-5.6,5.9c-1.1,1.2-1.1,3.1,0.1,4.2l0.6,0.6c1.2,1.1,3,1,4.2-0.1l5.4-5.7&#10;&#9;&#9;l4,3.8l-5.4,5.7c-1.1,1.2-1,3,0.1,4.2l0.6,0.6c1.2,1.1,3.1,1.1,4.2-0.1l5.1-5.4c0,0,12.5,14.7,24.4,3.9c9.6-8.8,3.6-16.7,3.6-16.7&#10;&#9;&#9;s4.9,1.1,9.3-1.6C260.6,340.5,260.9,335.2,258.5,329.2z M232.8,352c-1.9,1.9-4.6,2.3-7.8,0.8c-4.2-2-7.6-5.1-10.8-8.5l9.3-9.8&#10;&#9;&#9;c0,0,7.3,5.7,9.9,9.4C235.3,346.3,235.1,349.8,232.8,352z M245,334.5c-1.6,1.7-4.2,2.2-6.4,1.2c-3.7-1.7-6.9-4.1-9.5-7.2&#10;&#9;&#9;c3.2-3.4,6.1-6.5,9.1-9.7c3.1,2.6,6,5.2,7.7,8.9C247.3,330,246.9,332.8,245,334.5z"/>
	<path class="st1_bitcoin-1-45" d="M241.1,338.3c-1.1,0-2.2-0.2-3.2-0.7c-3.9-1.8-7.4-4.4-10.2-7.7c-0.7-0.8-0.7-2,0-2.7c1.8-1.9,3.5-3.7,5.1-5.4&#10;&#9;&#9;l4-4.2c0.7-0.8,1.9-0.8,2.8-0.1c2.9,2.5,6.2,5.4,8.2,9.5c1.6,3,1,6.7-1.4,9.1l0,0C245,337.4,243.1,338.2,241.1,338.3z M245,334.5&#10;&#9;&#9;L245,334.5z M231.9,328.5c2.1,2.3,4.7,4.1,7.5,5.4c1.4,0.7,3.1,0.4,4.2-0.8c1.3-1.2,1.5-3.1,0.6-4.6c-1.4-2.7-3.4-5.1-5.8-7&#10;&#9;&#9;l-2.7,2.9L231.9,328.5z"/>
	<path class="st1_bitcoin-1-45" d="M228.8,355.7c-1.6,0-3.2-0.4-4.6-1.1c-4.6-2.1-8.2-5.6-11.4-9c-0.7-0.8-0.7-2,0-2.8l4.5-4.7l4.8-5&#10;&#9;&#9;c0.7-0.7,1.9-0.8,2.7-0.2c0.3,0.2,7.6,5.9,10.3,9.8c2.5,3.2,2.1,7.8-0.8,10.7l0,0C232.8,354.8,230.8,355.7,228.8,355.7z M217,344.2&#10;&#9;&#9;c2.5,2.8,5.5,5,8.9,6.7c3.5,1.6,5,0.1,5.5-0.4l0,0c1.6-1.5,1.8-3.9,0.4-5.6c-1.6-2.3-5.6-5.8-8-7.8l-3.5,3.7L217,344.2z"/>
	<path class="st1_bitcoin-1-45" d="M231.6,368.7c-0.3,0-0.7,0-1,0c-6.2-0.4-11.4-4.6-13.9-6.9l-3.7,3.9c-1.9,2-5,2.1-7,0.2l-0.7-0.7&#10;&#9;&#9;c-2-1.9-2-5-0.2-7l4-4.3l-1.1-1l-4,4.2c-1.9,2-5,2.1-7,0.2l-0.6-0.6c-2-1.9-2-5-0.2-7l4.2-4.5l-8.5-8c-0.4-0.4-0.7-1-0.6-1.6&#10;&#9;&#9;c0-0.6,0.3-1.1,0.8-1.5l3.6-2.7l3.1-2.3c0.8-0.6,1.9-0.5,2.6,0.1l1.1,1c0.7,0.6,1.4,1.3,2.1,2c0.2,0.2,0.5,0.4,0.8,0.5l0,0&#10;&#9;&#9;c0.4-0.1,0.7-0.4,1-0.7c3.7-3.9,7.4-7.9,11.1-11.7c1.9-1.9,3.7-3.9,5.6-5.8l0.7-0.7c1-1,2.7-2.9,2.8-3.6c0-0.2-0.2-0.8-1.8-2.3&#10;&#9;&#9;c-0.4-0.4-0.8-0.8-1.2-1.2l-0.4-0.4c-0.2-0.2-0.5-0.4-0.8-0.7c-0.4-0.4-0.6-0.9-0.7-1.4c0-0.5,0.2-1.1,0.6-1.5l4.9-5.2&#10;&#9;&#9;c0.8-0.8,2-0.8,2.8-0.1c0,0,0,0,0,0l8.4,8l4.2-4.4c1.9-2,5-2,7-0.2l0.6,0.6c2,1.9,2.1,5,0.2,7c0,0,0,0,0,0l-3.9,4.1l0.9,0.9l3.8-4&#10;&#9;&#9;c1.9-2,5-2.1,7-0.2l0.7,0.6c2,1.9,2.1,5,0.2,7l-4,4.2c1.6,1.8,4.2,4.9,5.1,7.4l0,0c1.9,5,3.5,12.4-5.3,17.7c-2.2,1.3-4.6,1.9-7.1,2&#10;&#9;&#9;c1.2,4.1,0.9,10.1-5.6,16C239.5,367,235.7,368.7,231.6,368.7z M216.7,356.9L216.7,356.9c0.6,0,1.1,0.3,1.5,0.7&#10;&#9;&#9;c0.1,0.1,5.8,6.7,12.7,7.1c3.3,0.1,6.5-1.1,8.8-3.4c8.1-7.4,3.6-13.8,3.4-14.1c-0.7-0.9-0.5-2.1,0.4-2.8c0.5-0.4,1.1-0.5,1.7-0.3&#10;&#9;&#9;c2.7,0.5,5.4,0,7.8-1.3c5-3,6-6.6,3.7-12.8c-0.9-2.3-4.3-6.1-5.6-7.4c-0.7-0.8-0.7-2,0-2.8l5.3-5.6c0.4-0.4,0.3-1-0.1-1.4l-0.6-0.6&#10;&#9;&#9;c-0.4-0.4-1-0.4-1.4,0l-5.2,5.5c-0.4,0.4-0.9,0.6-1.4,0.6c-0.5,0-1-0.2-1.4-0.5l-3.8-3.6c-0.8-0.8-0.8-2-0.1-2.8c0,0,0,0,0,0&#10;&#9;&#9;l5.2-5.5c0.2-0.2,0.3-0.4,0.3-0.7c0-0.2-0.1-0.5-0.3-0.6l-0.6-0.6c-0.4-0.3-1-0.3-1.4,0.1l-5.5,5.9c-0.8,0.8-2,0.8-2.8,0.1&#10;&#9;&#9;c0,0,0,0,0,0l-8.4-8l-2.1,2.3c0.4,0.4,0.8,0.7,1.1,1.1c4.6,4.6,3.4,6.8-1.1,11.5l-0.7,0.7l-5.6,5.8c-3.6,3.8-7.4,7.7-11.1,11.6&#10;&#9;&#9;c-0.9,1.2-2.3,1.9-3.8,2c-1.4,0-2.8-0.7-3.7-1.8c-0.6-0.6-1.2-1.1-1.8-1.7l-1.7,1.3l-1.7,1.3l8.2,7.8c0.8,0.8,0.8,2,0.1,2.8&#10;&#9;&#9;c0,0,0,0,0,0l-5.6,5.9c-0.4,0.4-0.4,1,0,1.4l0.6,0.6c0.2,0.2,0.4,0.3,0.7,0.2c0.2,0,0.5-0.1,0.7-0.3l5.4-5.7c0.8-0.8,2-0.8,2.8-0.1&#10;&#9;&#9;c0,0,0,0,0,0l4,3.8c0.8,0.8,0.8,2,0.1,2.8l-5.4,5.7c-0.3,0.4-0.3,1,0,1.3l0.7,0.7c0.4,0.3,1,0.3,1.3-0.1l5.1-5.4&#10;&#9;&#9;C215.6,357.1,216.1,356.9,216.7,356.9L216.7,356.9z"/>
</g>
<g id="stone-2_bitcoin-1-45">
	<polygon class="st0_bitcoin-1-45 targetColor" points="275.4,285.4 340,335.6 340,376.6 249.7,376.6 &#9;" style="fill: rgb(187, 104, 253);"/>
	<path class="st1_bitcoin-1-45" d="M340,378.5h-90.3c-0.6,0-1.2-0.3-1.5-0.8c-0.4-0.5-0.5-1.1-0.3-1.7l25.7-91.2c0.3-1,1.4-1.6,2.4-1.3&#10;&#9;&#9;c0.2,0.1,0.5,0.2,0.7,0.3l64.6,50.2c0.5,0.4,0.7,0.9,0.8,1.5v41C341.9,377.7,341.1,378.6,340,378.5z M252.3,374.7h85.8v-38.1&#10;&#9;&#9;l-61.6-47.9L252.3,374.7z"/>
	<path class="st0_bitcoin-1-45 targetColor" d="M275.4,285.4l64.6,50.2c0,0,99.9-31.2,95.2-31.5s-62.4-17.8-62.4-17.8L275.4,285.4z" style="fill: rgb(187, 104, 253);"/>
	<path class="st1_bitcoin-1-45" d="M340,337.5c-0.4,0-0.9-0.1-1.2-0.4l-64.6-50.2c-0.8-0.7-1-1.9-0.3-2.7c0.4-0.5,0.9-0.7,1.5-0.7l0,0l97.5,0.9&#10;&#9;&#9;c0.2,0,0.4,0,0.5,0.1c23.1,7,58.7,17.4,62,17.7c1,0.1,1.8,0.8,1.9,1.8c0.2,2.2,0.3,2.6-49,18.4c-23.6,7.6-47.5,15-47.8,15.1&#10;&#9;&#9;C340.4,337.5,340.2,337.5,340,337.5z M281.1,287.4l59.3,46.1c30.7-9.6,74.2-23.4,88.9-28.8c-14.7-3.8-50.8-14.7-56.7-16.5&#10;&#9;&#9;L281.1,287.4z"/>
	<polygon class="st0_bitcoin-1-45 targetColor" points="340,335.6 340,376.6 467,376.6 435.3,304.1 &#9;" style="fill: rgb(187, 104, 253);"/>
	<path class="st1_bitcoin-1-45" d="M467,378.5H340c-1.1,0-1.9-0.9-1.9-1.9l0,0v-41c0-0.8,0.5-1.6,1.3-1.8l95.2-31.5c1-0.3,2,0.1,2.4,1.1&#10;&#9;&#9;l31.8,72.5c0.4,1,0,2.1-1,2.6C467.5,378.5,467.2,378.5,467,378.5L467,378.5z M342,374.7h122l-29.9-68.2L342,337V374.7z"/>
</g>
<g id="hammer_bitcoin-1-45">
	<g id="hammer-2_bitcoin-1-45">
		<path class="st1_bitcoin-1-45" d="M37.4,338.4l-10.3-7.5c-3.3-2.4-4-7-1.6-10.3c0,0,0,0,0,0l136.8-187.3c2.4-3.3,7-4,10.3-1.6l10.3,7.5&#10;&#9;&#9;&#9;c3.3,2.4,4,7,1.6,10.3L47.7,336.7C45.3,340,40.7,340.8,37.4,338.4z"/>
		<path class="st1_bitcoin-1-45" d="M41.7,341.7c-2,0-3.9-0.6-5.5-1.8l0,0L26,332.5c-4.1-3-5-8.9-2-13l136.7-187.3c3-4.1,8.8-5.1,13-2.1l10.3,7.5&#10;&#9;&#9;&#9;c4.1,3,5.1,8.8,2.1,13L49.3,337.9c-1.5,2-3.6,3.3-6.1,3.7C42.7,341.7,42.2,341.7,41.7,341.7z M168.3,132.2c-1.7,0-3.4,0.8-4.4,2.2&#10;&#9;&#9;&#9;L27.1,321.7c-1.8,2.4-1.2,5.8,1.2,7.6l10.3,7.5l0,0c2.4,1.8,5.8,1.2,7.6-1.2c0,0,0,0,0,0L183,148.3c1.8-2.4,1.2-5.8-1.2-7.6&#10;&#9;&#9;&#9;l-10.3-7.5C170.6,132.5,169.4,132.2,168.3,132.2z"/>
		<path class="st0_bitcoin-1-45 targetColor" d="M217.7,221.9c-5.1-18.6-18.3-54.4-48-76.1s-67.9-23.2-87.1-22.3c-1.8,0.1-3.2,1.6-3.2,3.4&#10;&#9;&#9;&#9;c0,1.2,0.7,2.3,1.8,2.8c19.4,9.7,38.2,20.7,56.2,32.8L120.3,186l27,19.6l17.1-23.4c16.8,13.3,32.8,27.6,47.8,42.8&#10;&#9;&#9;&#9;c1.3,1.3,3.4,1.2,4.7-0.1C217.6,224.1,217.9,223,217.7,221.9z" style="fill: rgb(187, 104, 253);"/>
		<path class="st1_bitcoin-1-45" d="M214.5,228c-1.4,0-2.7-0.6-3.7-1.6c-14.5-14.7-29.9-28.6-46.1-41.4l-15.9,21.8c-0.6,0.8-1.8,1-2.7,0.4&#10;&#9;&#9;&#9;l-27-19.6c-0.4-0.3-0.7-0.8-0.8-1.3c-0.1-0.5,0-1,0.3-1.4l15.9-21.8c-17.4-11.6-35.6-22.2-54.3-31.6c-2.6-1.3-3.6-4.4-2.3-7&#10;&#9;&#9;&#9;c0.9-1.7,2.6-2.8,4.5-2.9c20.1-0.9,58.4,0.8,88.4,22.7s43.4,57.7,48.8,77.1l0,0c0.8,2.8-0.9,5.7-3.7,6.5&#10;&#9;&#9;&#9;C215.3,228,214.9,228,214.5,228L214.5,228z M164.3,180.3c0.4,0,0.9,0.1,1.2,0.4c16.9,13.3,32.9,27.7,48,43&#10;&#9;&#9;&#9;c0.4,0.5,1.1,0.6,1.6,0.2c0.6-0.3,0.8-1,0.6-1.6l0,0c-5.2-18.9-18.2-53.9-47.3-75s-66.3-22.8-85.9-21.9c-0.6,0-1.2,0.5-1.3,1.1&#10;&#9;&#9;&#9;c-0.1,0.6,0.2,1.2,0.7,1.5c19.5,9.8,38.3,20.8,56.4,33c0.9,0.6,1.1,1.8,0.5,2.7c0,0,0,0,0,0L123,185.6l23.8,17.4l15.9-21.9&#10;&#9;&#9;&#9;c0.3-0.4,0.8-0.7,1.3-0.8L164.3,180.3z"/>
	</g>
	<path class="st4_bitcoin-1-45" d="M236.3,189.6c-1,0-1.9-0.8-1.9-1.9l-1.8-38.8c0-1.1,0.8-2,1.8-2c0,0,0,0,0,0c1,0,1.9,0.8,2,1.8l1.8,38.8&#10;&#9;&#9;C238.3,188.7,237.4,189.6,236.3,189.6L236.3,189.6z"/>
	<path class="st4_bitcoin-1-45" d="M250.5,193c-1.1,0-1.9-0.9-1.9-1.9c0-0.6,0.3-1.2,0.8-1.6c1.7-1.3,17.2-18.4,26.6-28.9&#10;&#9;&#9;c0.7-0.8,1.9-0.9,2.7-0.1c0.8,0.7,0.9,1.9,0.1,2.7c-4.1,4.6-25,27.9-27.2,29.5C251.3,192.9,250.9,193,250.5,193z"/>
	<path class="st4_bitcoin-1-45" d="M256.1,207.7c-1.1,0-1.9-0.9-1.9-2c0-1,0.7-1.7,1.7-1.9l22.9-2.9c1.1-0.1,2,0.7,2.1,1.7c0.1,1-0.6,1.9-1.6,2.1&#10;&#9;&#9;l-22.9,2.8L256.1,207.7z"/>
</g>
</svg>